<?xml version="1.0" encoding="UTF-8"?>
<svg id="_レイヤー_1" data-name="レイヤー 1" xmlns="http://www.w3.org/2000/svg" viewBox="0 0 498.1 468.36">
  <defs>
    <style>
      .cls-1 {
        fill: #fff;
      }
    </style>
  </defs>
  <path class="cls-1" d="M341.21,343.64l-6.17-5.78c-26.07,7.6-52.22,8.46-80.55,8.82l-178.39,2.22,31.76,3.7,74.74,8.17,24.72,2.48c21.16,2.12,61.86,3.61,62.55-5.27l60.5-5.02c-.14.08-.28.16-.42.24l4.07-1.67,7.18-7.89Z"/>
  <path class="cls-1" d="M148.88,225.11L.83,221.14l27.86-2.68,78.53-5.53c28.97-2.04,70.4-9.53,78.25,4.93-12.06,7.57-23.61,7.61-36.59,7.26Z"/>
  <path class="cls-1" d="M176.89,159.92l-55.42-.9-69.89-.85c-7.33-.09-17.07-1.93-25.01-3.11,32.1-.69,63.84-1.95,97.13-4.77,25.91-3.66,49.98-4.85,76.17-4.81l7.7,6.08c-9.39,6.4-18.93,8.55-30.67,8.36Z"/>
  <path class="cls-1" d="M153.48,300.08c-37.02-4.34-72.34-4.99-108.52-5.77l32.49-2.58,100.78-5.46c10.58-.57,21.44-.73,28.04,8.97-17.33,6.1-34.89,6.95-52.79,4.85Z"/>
  <path class="cls-1" d="M233.76,99.3l-58.51-2.46,61.15-8.06c22.59-2.98,42.45-7.09,67.51-1.93l-11.22,11.21c-20.51,1.87-38.85,2.08-58.92,1.24Z"/>
  <path class="cls-1" d="M207.67,273.54l-24.14-2.72-10.51-1.68-7.4-1.87.14-5.59,6.68-3.4,5.86-2.98,5.58-2.84,7.24-3.73,8.23-3.79,5.53-2.56,8.1-4.11-15.36-2.11-12.62.48-15.81.08-13.33-1.37,1.52-6.1,9.98-4.88,8-6.29,8.57-5.72,8.54-5.81,8.68-5.65,8.63-5.77,7.09-3.93,5.68-2.87,5.68-2.87,5.69-2.87,6.21-2.54,4.48-3.18c1-.71-1.33-3.74-2.07-4.78l-5.01-7.01-4.91-6.87-7.48.79-6.51,1.47-6.78,1.93-7.45,1.76-10.73,3.58-6.52,2.17-6.03,1.49-14.07,4.22-6,1.55-7.46,2.04-6.58,2.04-6.02,2.1-6.39,2.09-6.96,2.28-9.32,2.17-6.01,2.09-6.3,2.26-6.98,2.05-8.76,2.83-6.38,1.28-6.52,2.38-6.98,2.05-6.61,1.98-12.23-.34,8.47-6.12,6.31-2.23,8.84-6.23,8.89-1.98,7.73-3.72,5.74-2.88,5.75-2.88,5.85-2.67,5.92-2.89,8.41-2.64,5.79-3.25,6.36-2.07,5.65-2.87,7.88-3.57,5.86-2.74,5.83-2.97,8.39-2.73,5.8-3.09,8.41-2.89,5.96-2.79,8.43-2.8,5.9-2.91,8.55-2.87,8.58-2.85,8.52-2.93,8.68-2.88,8.76-2.63,12.96-3.8,7.61-1.43,5.88-2.03,7.74-1.33,10.34-3.5c5.4.27,12.94,4.17,15.83,9.26l14.11,18.28,7.73,10.01,14.92-2.55,9.4-1.96,5.82-2.35,28.6.08,17.86,1.12,16.5,1.22,15.01,1.63,10.78,1.37,9.33,1.51,17.04,2.81,8.75,2.98,11.38,2.71,3.68,9.19-2.69,7.98c-.36,1.08-2.19,4.96-2.97,5.76l-8.21,8.32-10.85,9.29-11.17,8.61-11.66,8.37-5.41,3.51-6.98,4.41-5.55,3.49-4.86,2.89-5.8,3.27-5.57,3.14-10.95,6.19-5.53,3.13-5.94,2.74-8.34,2.86-5.71,3.35-9.05,2.15-11.37,4.74-.25,14.97-.87,16.81-1.77,6.66c-.21,1.07-1.14,5.51-2,6.34l-8.47,8.1-6.3,3.09-6.57,4.5-8.65,5.93-8.62,5.62-8.66,5.58-7.44,4.36-8.64,5.58-9.03,5.26-9.11,5.31-8.53,5.47-7.88,3.88-12.46,7.28-7.66,4.09-5.74,2.83-5.77,2.84-5.75,2.83-5.8,2.93-12.27,4.55-8.27,3.39-10.85,3.7-12.22,4.35-10.44,1.43-5.85.48c-1.03.08-3.24-2.39-5.28-4.41l13.12-11.22,10.39-6.97,12.57-10.05,10.35-7.03,7.96-6.06,5.18-3.51,5.21-3.38,11.14-9.14,4.85-3.98,10.55-9.01,12.21-11.02,13.21-11.92.55-8.51,2.72-6.56,2.3-11.78.71-9.74-44.17-.08-19.49-1.07ZM330.95,224.76l9.49-6.08,1.98-9.9-8.49-2.56-6.41-1.32h-11.14s-6.05,1.91-6.05,1.91l-6.22,2.19-9.34,9.03-.11,6.51,6.57,4.17,21.04-.27,8.67-3.68Z"/>
</svg>