<?xml version="1.0" encoding="UTF-8"?>
<svg id="_レイヤー_1" xmlns="http://www.w3.org/2000/svg" version="1.1" viewBox="0 0 230.25 194.9">
  <!-- Generator: Adobe Illustrator 30.7.0, SVG Export Plug-In . SVG Version: 2.1.4 Build 114)  -->
  <path d="M121.47,147.54l-.74-.2c-.18-.05-.92-.1-1.1-.04l-1.09.33c.06.08-.23-.3-.46-.61l-1.21.35c-.19.05-.71.03-.95.04l-1.6.03-3.06.08-2.16.15-2.89.02-3.7-.09-.19,2.33-.13.96-.22,1.24-.17.98-.21,1.22-.23,1.31-.33,4.03v1.08l.22,5.37-.02,1.98-.12,1.01.3,1.17.19,5.66c.01.32.17,1.2.27,1.51l.38,1.15.25,1.04.22,1.4.19,1.2.15.97.22,1.57.19,1.34.09.89-.12,2.55-.24.92-.07.61-.13.61.22.75-.03.91c0,.16-.28.82-.44.82l-4.85.17-9.23.04-1.02-.15-1.44-.05-2.17-.04-1.86-.02-1.05-.04-2.3-.14-1.41-.11-1.38-.05h-1.47l-2.26-.02h-.99l-1.52.11-1.45-.06-1.58-.2-2.39-.15-4.43.03-2.16-.06-5.8-.04-2.56.12-2.47.11-1.15.14-1.75.26-1.18.19-1,.17-.87.15c-1.62.27-1.77-.35-2.48-.22l-1.11.2-1.97.36c-.3.05-.82-.02-1.03-.23l-.59-.58c-.14-.13-1.2.32-1.23.13l-.29-1.7-.19-1.09c-.04-.25-.14-.51-.08-.64l.39-.88c.07-.15-.51-.57-.51-.75l-.07-1.67-.04-.98-.04-.9-.04-1.18-.05-2.16-.03-1.13v-1.08l.17-1.51.07-.94.06-1.55.11-1.41.22-1.21.25-1.46.3-2.45v-1.09l-.05-1.46.15-.86c.05-.3-.08-.99-.2-1.3l-.54-1.4c-.1-.25,0-.94,0-1.32v-3.2l-.59-.72-.18-2.04-.22-2.62c-.08-.92.99-.77.63-2.44l-.18-.81c-.03-.12.29-.7.3-.82l.21-2.23.23-2.46.16-1.09-.02-1.32-.02-1.32-.03-.74-.1-1.44.08-1.76c.63-.28.85-.37.05-.02l-.24-1.02-.1-1.72-.02-1.32v-2.84l.02-1.18.02-.86-.05-.98-.04-.8-.08-1.53.26-.85-.08-1.41-.02-1.19.06-2.85-.07-1.7-.11-1.52-.16-1.82-.14-1.26-.22-1.03.07-4.18.03-1.57-.8.36-1.07.48-.73.29-1.45.44-1.33.43-.79.28-1.11.39-1.42.38-1.2.21-1.09-.03-1.79-.11-1.75.28-.84.09-1.2-.06-1.82-.31-1.71.13-2.38-.03-1.25-.18-1.1-.16-1.2-.17c-1.07-.15-1.86-.72-2.32-1.69l-.48-1-.31-.7-.31-.79-.32-.78-.48-1.02-.48-1.05-.36-1.03-.3-1.18c-.03-.13-.25-.64-.24-.77l.11-1.16c.02-.21.32-.82.52-.9l1.05-.45c.11-.05.56-.37.65-.46l.49-.5.59-.6c.21-.21.5-.69.68-.82l1.26-.84,2.03-1.33,1.27-.84.81-.36,1.04-.51,2.02-.83c.3-.12,1-.65,1.22-.88l.56-.57c.1-.1.51-.36.64-.41l1.12-.42c.2-.07.65-.46.86-.68.51-.2.91-.25,1.58-.83l1.18-1.02c.11-.1.56-.36.7-.41l.97-.36c.17-.06.63-.3.78-.41l.64-.45,1.26-1.26.73-.79,1.21-1.32.5-.47,1.23-1.1.73-.65,1.14-1.74.81-.37.54-.6.84-.95.5-.53.66-.54,1.82-1.72.78-1.02.62-.86.65-.79.86-.37.42-.61c.19-.27.77-.88,1.03-1.1l1.01-.81.65-.5.73-.37.76-.68,1.69-1.53c1.22-1.1,1.69-.44,2-1.24.11-.28.26-.71.39-.78l.7-.38.96-.51,1.4-.75c.19-.1.68-.56.81-.71l.99-1.17.47-.55.73-.86c.1-.12.35-.5.46-.56l.71-.37.74-.44.14-.87.77-.63,1.07-.78.68-.37c.15-.08.66-.32.73-.42l1.26-1.67,1.07-1.08,1.31-1.19.76-.39.56-.91c.18-.29.66-.96.92-1.17l.88-.69.7-.8.59-.63.63-.59,1.26-1.32.88-.64,1.11-.98,1.38-1.21.8-.7c.2-.12.82-.52,1.01-.74l1.4-1.54,2.94-2.69.54-.79,1.49-1.37.61-.49.7-.41.92-.54.69-.35,1.02-.45.66-.41.71-.44c.12-.07.35-.36.48-.51l1.55-1.79.5-.56.51-.56.48-.26.52-.61.62-.95,1.37-1.4.53-.54.85-1,1.03-1.21.81-.95.66-.45,1.3-1.26,1.34-1.28.8-.64c.21-.17.72-.66.89-.86l.52-.66,1.01-1.15,2.15-2.12.67-.94,1.59-1.61,1.1-1.02c.06-.05.69-.05.7-.13l.12-1.02c.14-1.17.89-1.77,2.13-1.79h1.12l2.01-.1,1.25-.12,1.08-.1h3.68l1.07-.1.77-.16,1.15.1.99.19.92.48c.19.1.55.6.64.8l.37.81c.11.24.53.81.73.98l.78.68.7.47,1.44,1.39.54.63,2.22,2.14.95,1.22.97,1.14,2.49,2.36.89.84c.12.12.33.57.46.83l.43.48.89,1,.67.73.53.57.57.61,1.36,1.45.37.77.57.47,1,.83.54.5.73.78.83.68c.14.12.63.53.72.69l.54.93c.1.18.66.48.85.55l.55.22,1.01.4.81.37,2.05,1.45.92.66,1.48,1.38.79.73,2.03,1.89.97,1.25.58.53.78.68,1.59,1.38,1.5,1.31.49.6.43.69.84.94.52.58.61.47.76.73.95.91.6.82.55.5.8.68.62.54c.22.11.41.19.47.25l.72.77,1.02.81c.15.12.62.46.7.62l.53,1.02,1.3,1.16.6.53.78.7,1.35,1.2.78.68.87.84c.11.11.13.9.27.97l1.23.59c.33.16.74.35.91.48l1.22.96,1.66,1.3,1.15.98.82.6.96.54.71.43,1.17.95.79.61.7.48.64.44.87.6.53.6,1.14.98,1.21,1.04,1.86,1.61.29.5.49.68.46.62.78.68.58.51.47.64,1.23,1.27,1.62,1.66.73.75.53.55,1.3,1.34,3.82,3.39,1.86,1.35.57.57c.47.46,1.16.26,1.66.59l1.27.83,3.1,2.04.66.43.63.41.92.56.9.55.91.54.92.55.68.37.73.38.72.42,1.48,1.02,1.1.78,2.06,1.94,1.69,1.76c.15.15.41.97.39,1.16l-.1.96-.2.86c-.03.14-.26.61-.33.74l-.36.74-.31,1.19-.47,1.31-1.35,2.68-.7,1.1c-.07.11-.49.46-.62.5l-.78.25-.86.16-1.09.2-1.15.17-1.48.1-.72.04-.99.05-3.07.18-1.27-.11-.9.2-2.48-.04-2.24-.03-1.8-.02-1.19-.19-.96-.24-.8-.2-.79-.28-1-.5c-.11-.06-.43-.48-.49-.56-.18.04-.79.09-1.03-.02l-1.15-.56c-.14-.07-.07.48-.08.65l-.06,1.3-.21,1-.1.77-.27,3.24-.09,1,.17,1.23-.09,1.43-.05,1.4.07,1.17-.06.93-.08.72c-.02.14.22.71.19.86l-.19,1.1.14.78-.23.71-.27,1.07-.1,1.13c-.02.18,0,.82.04,1l.18.82.2.95c.04.18.07.74.04.94l-.12.96-.14,1.12-.12.92s.35.65.32.88l-.19,1.35-.13.88-.1,1.05.04,1.46.03.99-.02.91-.04,1.02-.07,1.79-.19.88.04.96.21,2.46-.24.88.38,2,.17.91.12,2.53-.16,2.14-.33,1.47-.05,2.14-.03,2.97-.11,1.53c0,.16-.17.63-.05.75l.46.46c.12.12.11.57.14.88l.14,1.39.32,1.16c.14.51-.59.62-.07,1.82l.48,1.1c.09.2.26.86.28,1.07l.08.95-.33.42.34,1.2c.04.14.18.67.17.79l-.16,1.44c-.03.24.04.92.13,1.15l.32.87c.04.12.16.46.15.51-.03.12-.15.61-.13.52l.1,1.22.07,1.2.08,1.04.07.74-.06.92c-.14-.22.31.41.26.54l-.43,1.04-.28.77c-.05.13.17.65.26.75l.41.51s-.22.45-.18.37c.08.55.14.96.14.94-.56.3-.65.34-.57.45l.4.61c.07.1.19.6.16.72l-.18.75-.2.83s0,.07-.04.05l-.83-.32c-.15-.06-.67-.07-.85-.08l-.76-.03-.97-.22-.56-.18c-.14-.05-.48.1-.55.21l-.6.98c.23.25.12.12-.23-.24l-.74-.14-1.35-.25-.84-.15-.71-.16c-.16-.04-.34.11-1.03.48.56.46.25.2-.08-.07h-2.36l-.59-.31-1.92.06-.84.11-.56-.13-3.8-.08-1.13.06-2.91-.09-1.44-.14-5.07-.03h-1.83l-1.24-.02-1.56.05-2.26.2-6.23-.1h-1.81l-1.46-.02h-2.58l-2.15.07-1.46.08-.78.04-1.07.06-1.07.06-1.09-.21c-.17-.03-.73.21-.91.22l-2.65.09-1.58-.07-2.62.09-7.34.09c-.13,0-.49-.67-.5-.8l-.12-1.18.22-4.2.04-.85.23-4.37.11-1.29.08-.85.18-1.87.16-1.13.2-1.01.22-1.15.26-.98.33-.93c.08-.23.1-.92.09-1.18l-.17-3.43.03-3.11.06-.96.03-1.23.02-1,.03-1.11v-1.53l-.17-1.94-.2-1.73-.14-1.2-.2-1.73-.16-1.55-.09-1.07-.26-1.12-.23-1.02-.26-1.12c-.03-.12-.5-.26-.62-.27l-.91-.05c-.09,0-.49-.02-.57,0l-1.14.28-1.15.28c-.14.03-.62-.06-.75-.1l-1.01-.27-.08.03ZM108.52,5.59l1.25-1.3.88-.72c.21-.17,1-.46,1.02-.73l.07-1.22c0-.16-.6-.18-.79-.18h-1.51l-1.15.15c-.28.04-.74.9-.75,1.18l-.03,1.18c0,.21-.01.65-.1.83l-.38.83-.37.8c-.07.16.08,1.12.2,1l.89-.87.77-.95h0ZM45.22,91.78h.44l.4-.06.14.87.25,1.21.15,1.56.09,2.09.07,1.08.06,1.06.07,1.49.09,1.34.12,1.19c.07.74-.24,1.02-.13,1.7l.13.83.18,1.11.13.8.16,1.02-.23.87v1.54l.04.42.1.93.11.99-.27.69.18.74.22.9.22.93.27,1.12-.33,1.12.24,1.87.21,1.33.17,1.08c.04.27.14.79.05,1l-.42.93c-.1.22.48.75.7.91l.03.84.07,1.85.04,1.11.05,1.4.23.84v.75l.08.96.16,1.01.07,1.56.12,1.09.16,1.07.12.79-.09,1.09-.02,1.04.14,1.09.2,1.49.1.77.12,1.06.05,2.17.05,1.12.21,2.45c0,.16.33.83.35.85l.27-1.9.12-.82c.02-.17.02-.73,0-.9l-.27-1.25.11-3.46.17-.8-.2-2.21v-1.09l.17-.8v-1.22l.02-.91.02-1.21v-1.9l-.06-.85-.1-1.07.23-.83v-1.05l-.07-1.03v-.92l.05-1.32v-2.86l-.12-.91-.07-1-.19-2.79-.18-.61-.04-.97.12-1.89.17-2.49.02-1.04v-3.66c0-.14.28-.52.21-.65l-.35-.65c-.06-.12-.05-.5.02-.61l.43-.67c.09-.14-.26-.69-.28-.84l-.21-1.65c-.02-.16.43-.75.44-.91l.06-.96-.07-1.48-.1-1.19c0-.13.03-.58.05-.76,0,.05-.14-.37-.09-.52l.34-1.11.03-1.09.03-.83.03-.73.04-1,.07-1.83.12-1.08.16-1.11.12-1.07.04-1.49.03-1.09.03-1.06.09-.85c.02-.15.35-.67.5-.66l1.18.04c.25,0,.74.86.64,1.09l-.53,1.21c-.07.17-.09.53-.14,1.19l1.42-.9.65-.46,1.23-.96.68-.49,1.68-1.14,1.59-1,.71-.44.59-.4,1.04-.75.95-.6,2.7-2.66.59-.61,1.02-1.1c.09-.1.65-.27.71-.4l.48-1.07c.17-.38.86-.95,1.2-1.19l.65-.47c.12-.09.12-.74.2-.86l.79-1.13c.23-.33.89-1.02,1.19-1.25l.87-.66.55-.57,1.78-1.85.53-.56.87-.9.79-.43c.13-.07.24-.67.25-.74l1.21-.27c.18-.04.63-.56.78-.68l.57-.46,1.17-.95,1.02-.89.84-.74,1.39-1.38.57-.61.74-.68.83-.67.56-.53,1.78-1.88.82-.95.72-.86.4-.48.7-.9.82-.9.77-.79c.09-.1.5-.27.61-.18l.5.4c.1.08.46.49.4.59l-.54.86c-.1.16.49,1.05.58.88l.57-1.16c.12-.24.6-.75.82-.91l.86-.66c.18-.14.24-.87.35-1.07l.37-.72c.09-.17.34-.58.45-.68l1.17-1.06.67-.67.53-.59,1.89-2.12.72-.8c.09-.1.35-.54.47-.57l.73-.24c.15-.37.34-.83.56-.92.25-.1.92-.31,1.06-.45l.73-.74.56-.56.59-.6c-.1.04.54-.13.64-.26l.66-.88.61-.5,1.75-1.88.49-.63,1.12-1.03.78-.72c.08-.08.04-.6-.04-.68l-.68-.8-.86-1-.84-.98-.49-.6-.77-1.04-.59-.96c-.07-.12.18-.64.31-.7.14-.07.81-.38.91-.3l1.46,1.31.28,1.18,1.15,1.39.44.68.96.89,1.03,1.04.62.94c.25.38.77,1.09,1.08,1.37l1.21,1.08.52.5.73.75,1.46,1.5,1.3,1.17,1.2,1,.99.84,1.58,1.38,1.07,1.05,1.67,1.68,2.5,2.38c.09.09.42.64.48.76l.39.74.41.65,1.03,1.16.59.85,1.23,1.11c.14.13.37-.6.27-.77l-.51-.86c-.17-.29.99-1.15,1.74-.47l.8.73.4,1.18,1.32,1.48,1.34,1.5.78.44.72,1,.64.89c.2.28.78.86,1.08,1.06l.62.43.62.55.74.68,2.24,2.14,1,.79,3.11,2.39,1.38,1.12.75.72,1.3,1.22,1.21,1.03,1.53,1.31c.11.09.42.51.48.63l.41.74c.07.13.33.59.44.69l1.39,1.39.44.63.63.62,2.11,2.07.41.82c.15.3.55.63.78.72l.74.29c.12.05.54.38.63.48l1.07,1.1c.09.09.47.41.59.48l.75.41c.24.13.88.49,1,.72l.41.77,1,.81.64.47,1.31.81.92.56.71.43.84.52.77.31.46-.66-.08-1.11c-.02-.27.27-1.07.54-1.05l1.21.08c.53.04.79.71.36,1.75-.1.23-.2.84-.16,1.09l.18,1.08.21,1.15c.22,1.21-.18,1.88-.11,2.17l.32,1.43.08.8.12,3.96.05,1.06.09,2.25.12,2.22.29.9.2.83-.08,1.02c-.02.28-.12.82-.11,1.05l.06,1.12.05.53.29,1.26c.05.23.21.97.12,1.18l-.38,1c-.03.17-.16.8-.05.24.42.48.66.75.64.91l-.15,1.17c-.03.2-.06.85,0,1.04l.24.91c.21.8-.62.18-.66,1.31l-.05,1.3.02,1.19.07,1.12.24,1.42.21,1.55v2.12l-.09,1.42-.2,1.59-.11.87.46.54-.13,1.05-.19,1.58-.17,1.42-.04,1.72.06,1.5.04,1.12-.1,1.34.04,1.25-.03,3.51-.11,1.31-.06.78.41.49.06.83.13,1.73c.04.5-.65,1.01-.33,2.17l.32,1.13.11,1.06.03.78.02.51-.09.57c-.03.17.05.75.09.92l.24.87.16.58.21.9.26,1.13.33,1.45.14,1.36.29,1.31c.02.1-.6.52-.53.59.12.13.51.55.45.49-.02.37-.04.54-.02.64l.15.67c.07.3.18.78.16.69.44-.17.53-.22.55-.09.04.35.14,1.16.12,1.02-.32.28-.54.47-.53.46.51.14.86.18.88.38l.11,1.1c0,.08-.13.5-.09.57l.42.73c.06.11-.33.49-.3.62l.19.98.23,1.18.2,1c.04.21.05.8,0,1.01l-.21.86.48.78-.11,1.15c-.02.2,0,.7.08.87l.42.87c.08.17.17.84.21,1.04l.23,1.06.26,1.19.18.84.28,1.3.25.79c.06.19.19.77.18.95l-.03.74s.31.83.7,1.07l1.34.83c.17.11.85.34,1.05.4l1.15.34,1.04.4,1.06.06,1.05.06.46.15-.15-1.09c-.04-.29-.11-.79-.1-.76.26-.07.81-.22.77-.28l-.54-1.09c-.12-.25-.1-1.16-.07-1.44l.11-1.14c.02-.18-.05-.81-.08-1.07l-.12-.99v-2.35s-.05-.68-.05-.68l-.08-1.14-.03-1.05-.03-1.42-.07-.72-.16-.87-.24-1.33-.09-.81-.1-1.08-.14-1-.14-.81-.19-1.09-.13-.75-.44-.46-.06-1.36-.15-3.4c-.03-.65-.45-.97-.48-1.34l-.11-1.79.02-1.42.02-1.46-.07-1.08-.12-.99c0-.12-.05-.58-.02-.7l.2-.93c.06-.26.17-1.02.14-1.29l-.16-1.58v-1.08l.05-.7.09-1.23-.12-1.02-.22-2.1.36-1.21-.15-1.08c-.05-.36,0-1.27.04-1.64l.11-.87.13-1.1.09-1.07.06-1.48.1-1.51.09-.99.1-1.08.15-1.64.05-1.87v-1l-.06-.96-.15-1.87.16-1.85.14-1.03.09-1.06-.04-1.15.05-1.03.16-1.08c.31.38-.14-.17-.35-.44l.62-1.05c.12-.21-.75-.67-.76-.91l-.03-.8.13-.89-.14-2.11-.08-1.15v-1.06l.43-3.45.18-.6-.05-1.31v-1.38l.1-.9.1-1.07.05-.65c.12-1.68.4-1.88.23-2.51-.04-.15-.26-.73-.25-.87l.09-1.3.38-.42.04-.91.11-2.48.05-1.13c0-.18.08-.67.12-.84l.19-.89.2-1.14.11-.64-.04-1.3.25-2.64.26-1.28.18-.93.14-.86.17-1.3v-1.63c0-.14.06-.7.11-.83l.37-.99c.06.14-.08-.2-.15-.37l-1.47-1.5-.79-1-1.55-1.79-.5-.58c-.09-.11-.43-.46-.55-.54l-.88-.59-.8-.65-.69-.72c-.15-.15-.39-.52-.49-.6l-.73-.52-.97-.76-.8-.63-.63-.48c-.31-.23-.77-.88-1.06-1.05l-1.2-.69-.71-.42-1.64-1.12c.19-1.25-.81-.14-1.47-.84l-1.04-1.08-.76-.81-1.08-1.01-1.07-.73-.92-.63-.63-.43-.69-.47c-1.14-.77-.52-1.68-1.34-1.88l-.9-.22c-.13-.03-.4-.33-.48-.45l-.51-.74-.59-.84-.39-.77c-.09-.18-.47-.57-.64-.69l-.95-.68-1.45-1.3-.95-.92-.74-.72s-.07.02.51-.19c.05.1,0-.4-.13-.42-2.4-.39-2.73-2.06-3.21-2.42l-.66-.5-.43-.41-1.4-1.32-1.2-1.28-.67-.78-.53-.61-1.22-1.42-.78-.8.07-.32-.94-.8-1.09-1-2.19-2.28-1.11-.96-.94-.58-.61-.41-.87-.66-.81-.61-.59-.51-.68-.43-.7-.41-1.05-.44-1.02-.34-1.01-.23-.86-.2-.83-.27c-.27-.09-.94-.1-1.32-.08l-2.11.12c-.53.03-1.03.64-1.02,1.65v1.35c0,.21-.2.69-.28.89l-.3.79-.21,1.03c-.02.08-.04.45-.03.54l.13.73c.03.17.14.81.08.97l-.37,1.06-.29.82c-.06.16.1.64.12.82l.12.92.08,1.5-.07,1.05-.09,1.26-.06.93c0,.14.09.68.13.82l.24.82.09.8c-.57-.35-.8-.46-.82-.59l-.2-1.13-.16-1.06.03-1.11c0-.15-.41-.58-.37-.53l.44-.74c.08-.14.12-.72.08-.9l-.27-1.14-.15-1.76.14-2.18.1-1.47.09-1.32.19-.87.55-.91.12-2.04c.07-1.18.73-1.85,1.78-1.93l1.18-.08.84.07,1.36-.13c.19-.02.71-.16.6-.27l-.58-.62-.9-.96s.11-.53.04-.57l-.52-.31-.72-.44c-1.1-.67-1.09-1.45-2.03-2.25l-.76-.65-.54-.7-1.59-1.57-.42-.72-.49-.6-.5-.62-1.13-1.44-.46-.58-.46-.62-2.23-2.46-1.28-1.41-1.27-1.32-.54-.38-.48-.32-.62-.47-.79-.65-1.18-.99-.61-.51-.7-.68c-.14-.14-.7-.25-.91-.32l-1.57-.51-1.42-.46-.83-.31c-.27-.1-1-.19-1.28-.19l-1.19.03-1.07.03c-.6,0-1.12.62-1.13,1.21l-.02,1.15c0,.21,0,.69-.1.87l-.38.75-.35.86-.14.82-.11.98.21.89c.02.1-.14.41-.17.5l-.29.83-.37,1.07c-.05.14.2.62.2.76v1.04l-.02,1.74-.17,1.19-.16,1.1c-.03.18.02.88.07,1.06l.26.87c.14.47.26.68-.12,1.15l.28.74c.06.15-.63.22-.66.06l-.25-1.94-.12-.89-.15-1.17s.17-.76.1-.94l-.43-1.12c-.06-.15.38-.72.38-.88v-1.3l.17-3.49.1-.93.11-1.07.12-1.18c.01-.12-.52-.13-.62-.03l-1.34,1.15-.63.57-.79.97-.55.66-1.26,1.22c-.34.33-.94.78-1.15,1.05l-1.42,1.8-1,1.27-1.13,1.36c-.08.09-.51.38-.61.45l-.65.48-.83.77-.53.57-.57.71-.82,1.02-.58.72c-.28.14-.84.46-.96.64l-.75,1.06-.48.7-.98,1.09c-.12.13-.54.79-.37.78l1.1-.04,1.23-.05c.17,0,.9.08,1.06.16l1.42.72c.23.12.67.81.78,1.04l.36.77.2,1.4.02,1.24.02,1.05.02,1.1c.02,1.03,1.41,1.28.28,2.01-.25-.45-.04-.08.14.25l-.1.88-.11,1.02.34.91.04,1.25c0,.28-.02,1.04-.09,1.32l-.25.99-.19.75-.26,1.08-.23,1.13-.42.89-.31.83c-.05.14-.63.12-.57-.02l.25-.67.39-1.44.29-1.9c.11-.15.41-.69.44-.87l.2-1.03c.03-.16.1-.62.06-.78l-.18-.85-.34-2.13-.17-2.76-.25-.89-.14-.99c-.04-.25,0-.92.04-1.18l.15-1.11c.02-.18-.06-.88-.16-1.03l-.4-.61-.62-.93c-.34-.51-2.18-.89-2.82-.69l-1.42.45-.85.27-.74.16-1.04.2c-.21.04-.85.32-1.03.43l-.66.43-1.78,1.16-1.41,1.05-2.07,1.74-1.73,1.78-1.1,1.03-1.1.79-.51.58-1.36,1.56-.69.79-.84.95-.86.66-.73.65-1.55,1.43-.54.56-1.69,1.81c-.1.11-.38.2-.78.36l-.5.64-.64.81-.5.65-.68.73-.71.71-.46.7-.44.55-.93.37-2.16,2.36-1.06,1.17-.87.96-.52.6-.5.59c-.08.1-.45.29-.57.34l-.91.37c-.8.32-.29.95-1.18,1.7l-1.54,1.31-2.52,1.88-1.16.74-2,1.86-.9.38-2.83,2.41-1.62,1.4-.73.73-1.21,1.32-.57.52-1.4,1.26-.48.54-.47.69-.49.5-1.48,1.5c-.11.11-.37.51-.5.54l-1.48.31.65.91c.46.64-.41,1.29-.37,1.49l.2,1.11.24,1.32.26.89-.11,1.79c0,.15.22.71.25.86l.25,1.18.24,3.05.18,1.74.13,1.24.19,2.83.4,1.4c.07.23.24.94.24,1.17v1.12l.02,1.04.05,1.03c0,.13.21.64.28.75l.47.72c.1.15-.02.64-.02.92l.03,1.66.21,1.53.13.95.17.9.25,3.1.1,1.22.15,1.84c.02.2.1.73.16.9l.28.82c.24.7-.16,1-.04,1.84l.15,1.04.21.87.17,1.01.08,1.15.08,1.09.09,1.22c0,.15-.02.94-.02.47l-.46,1.16.1,1.53c.02.25.11.9.19,1.11l.41,1.1c.05.14.23.65.22.81l-.06,1.37-.1,2.18.38,1.01-.12,1.47-.09,1.05-.03.7.06.82.08,1.14.08,1.07.08,1.16.04,1.1-.1,2.08.18,1.22.25,1.67c.11.71-.69.96-.41,1.78l.28.82-.04,1.08-.02,1.73.1,1.17.09,1.02.07,1.42.02.73.02.82c.02.85-.83.67-.76.95l.22.85c.05.19.02.95,0,1.15l-.38,2.15-.43,1.09c-.06.14-.43.58-.39.72l.25.86c.06.2-.08.86-.14,1.11l-.24,1.04-.11,1.02c-.02.14-.32.65-.39.73l-.27.44.05.95.07,1.2c0,.24-.02.87-.1,1.1l-.31.93c-.04.13-.18.62-.19.76l-.04,1.53c0,.16.19.49.21.53-.15.11-.62.62-.61.82l.08,1.18.2.89c.03.12-.05.54-.09.76l.1,1.3-.04,1.14.05.66.15,1.14.15,1.15c.02.16.03.66-.04.8l-.35.75c-.07.14-.1.63-.03.77l.37.71c.11.21.32.64.33.77l.09,1.48c-.08.02.31-.07.67-.16l1-.23,1.05-.27.83-.23.92-.28,1.54-.48c.15-.05.62-.36.74-.47l.49-.46.22-1,.2-.9.25-.94-.02-1.43c0-.22.19-.94.26-1.15l.32-1.03.2-1.41.23-.83.29-1.15.22-.85c.04-.14.08-.58.06-.72l-.07-.91c-.02-.25.51-.78.56-1.03l.21-1.11c-.71-.3-.82-.34.04.02l-.06-.99c-.14.06.26-.1.5-.2l-.32-.66c-.08-.16-.03-.88.05-1.04l.63-1.15.15-1.07.17-.75-.11-.74.3-1.48.7.53.22-1.22c.04-.23-.41-.95-.45-.98l-.46,1.42-.55-1.46-.18-.81-.2-1.08-.19-1.42-.09-1.85c-.02-.33-.04-.79-.04-.69-.57.21-.67.24-.55.2l-.17-1.36-.13-.78-.32-1.63-.23-1.2c-.02-.12.16-.57.26-.83l-.12-.64-.21-1.04-.24-1.15-.3-1.43c-.07-.32-.11-1.83.25-2.41.03.17-.08-.49-.12-.78l-.24-1.52-.17-1.07.16-.56.06-2c0-.22-.25-.86-.32-1.09l-.35-1.28c.11-.34.2-.62.17-.76l-.18-.89-.21-1.05-.12-.61c.14-.27.32-.54.28-.7l-.15-.66-.33-1.39c-.03-.15-.13-.58-.08-.71l.29-.78s-.57-.52-.55-.65l.22-1.31.21-.92c.06-.26-.08-.98-.16-1.24l-.26-.82-.28-.85-.22-.69c-.2-.6.88-.77.33-1.21-.12-.1-.54-.33-.51-.47l.16-.65.31-1.23c.04-.15.31-.67.26-.82l-.32-1.11c-.08-.26-.19-1.2-.16-1.47l.13-1.28c.77-.26-.28-.83-.3-1.34l-.06-1.37-.13-.9-.04-.69-.03-.74v-1.15l.09-.88.13-1.47.1-1.11.05-.57-.11-1.22-.12-2.87-.15-.9-.21-1.01-.06-1.05v-2.11l-.21-2.23.05-.98.06-.71-.12-.66.13-.4h.09ZM105.63,5.33l-.18.18.18.18.18-.18-.18-.18ZM91.56,23.24c.67-.82,1.42-.19,1.63-.68l.34-.79.32-.73c.07-.15.28-.65.39-.74l1.33-1.18.45-.53.55-.7.64-.73.54-.61,1.45-1.47.54-.49.63-.57.52-.5,1.3-1.29.46-.46c.23-.13.7-.37.8-.5l1.72-2.15c.1-.12.29-.72.29-.87v-2.54l-2.16,1.84-.67.72-.87,1.07-1.02,1.04-1.03.86-.5.56-1.01,1.26-2.03,2.53-.73.53-.54.53-1.45,1.42-.46.51-.57.67-1.13,1.33-.73.41-.75,1.05-.8,1.11-.44.58-.7.75c-.12.13-.3.5-.39.66s.58.09.76.07l.92-.14c.31-.05,1.1-.25,1.29-.49l1.11-1.37v.03ZM34.22,74.97l.91-.58c.23-.15.76-.64.93-.85l.85-1.03c.12-.15.52-.55.67-.68l.7-.53,1.93-1.87.47-.78.47-.6.88-.96.66-.34.56-.68,1-1.01.86-.75.78-.59.94-.53.57-.55.61-.55,1.69-1.5c.14-.12,1.01-.33.95-.31.35-.54.73-1.13,1.03-1.29l1.13-.61.84-.42.7-.35.65-.45.49-.52.84-1.05.45-.56.55-.57.47-.69.97-.54c.91-.51.67-1.2,1.04-1.47l.84-.6,1.06-.76.79-.32c.17-.07.57-.53.66-.68l.46-.79,1.35-1.42.56-.57.82-.67c.09-.08.6.12.66.02l.43-.82.37-.67c.19-.35.83-1.05,1.15-1.3l.88-.69.49-.49.56-.62.51-.57,1.51-1.64.74-.45,1.32-1.2,1.01-.91.53-.46.54-.46.78-.55,1.7-1.79,1.55-1.42,1.32-1.21.62-.87,1.34-1.2c.21-.18.81-.58,1.05-.71l.94-.53.91-.51c.16-.09.84-.24,1.03-.26.16-.02-.42-.22-.58-.26l-.71-.19c-.18.22-.38.48-.49.51l-1.25.28-1.2.29c-.14.03-.61.28-.73.36l-.66.43-.85.6-.65.46-.66.44-.78.65-1.36,1.14-.67.51-1.4,1.49-1.4,1.36-.93.67-.53.52-1.91,2.19-1.3,1.5-.7.47-.76.66-1.3,1.23-.73.74-.73.74-1.05,1.07-.74.4-.47.6-.43.64c-.08.12-.75.17-.78.32l-.24.94c-.03.12-.45.36-.53.45l-.88.93c-.11.12-.31.62-.45.71l-.91.56c-.33.21-1.03.85-1.28,1.15l-.91,1.09-1,1.1-.69.74-.54.59-.69.76-.62.49c-.1.08-.82.13-.89.24l-.85,1.25c-.08.12-.41.61-.51.7l-1.76,1.44-1.75,1.41-.88.38-2.27,1.99-.97.6-1.02.77-1.84,1.63-.84.52-1.71,1.74-.56.6-1.02,1.09-.81.73-1.16,1.03-.66.72-.51.65-.9.96-1.25,1.24c-.16.16-.9.28-1.13.34-.12.03.23.55.28.67l.38.98-.54.59c-.02-.41.02.35.03.58l.9-.76.52-.48,1.1-1.03c.92-.87.55-1.27,1.04-1.58ZM132.03,46.6l-.37-.86c-.05-.12-.29-.74-.38-.83l-1.75-1.74-.61-.53-.67-.46-.54-.45-.75-.62-.57-.7-.73-.72-.78-.63-.97-.68c-.06-.04-.04-.09.02-.53.1.05-.33-.17-.51-.26l-.76-.39c-.19-.09-.56-.55-.7-.71l-.52-.57-1.72-1.62-.83-.93-.46-.65-.49-.69c-.14-.2-.89-.25-1.06-.07l-.82.84c-.17.17.08.73.25.9l1.47,1.49,2.17,2.19.78.62,1.08.86,1.13.93,3.55,3.44,1.31,1.26.59.55,1.04,1.07.56.89c.09.15.23.67.34.79l1.32,1.49.42.72,1.49,1.46c.11.1.7-.04.63-.16l-.76-1.24c-.45-.74-.25-1.52-.65-2.18l-.77-1.29h.02ZM175.93,176.12c-.05-.17-.22-.63-.23-.81l-.15-1.73c-.03-.38-.05-1.27.03-1.62l.26-1.27.21-1.23.08-1.43.06-1.09.05-.81.08-1.8.16-3.48.35-.87.11-2.01.22-1.25-.21-2.14-.15-1.5-.09-1.06v-2.13c0-.3-.41-.67-.48-1.54l-.13-1.44.03-1.4.14-.9c.02-.15,0-.53-.02-.71l-.13-1.43.04-1.96.11-1.61.09-1.4.08-1.13.07-1.07-.03-1.5-.02-1.06.2-.88c.04-.18.13-.74.13-.92v-1.49l.23-3.79v-1.61l-.02-1.02v-1.49l-.1-1.18-.11-1.12-.06-1.07.1-1.83.1-1.78.14-.51-.07-.86-.13-1.62-.03-.98-.02-1.16c0-.14.25-.59.25-.58-.15-.27-.41-.71-.38-.87l.23-.98c.3-1.24-.53-.52-.53-1.5v-1.52c0-.14.38-.74.27-.54l-.02-.64-.04-.74-.15-1.39-.36-1.14c.05-.12.19-.48.18-.46l-.04-.77.07-.89-.09-1.54c-.57-.14-.64-.16.07.02l-.09-.78-.11-.96-.2-1.74-.08-.8.04-1.13.04-1.07c0-.19-.28-.79-.41-.87l-1.35-.78-.72-.4-.7-.4-1.17-.67-.71-.38-.94-.48-.64-.48-1.02-.79-2.51-1.93-1.11-1-.96-.82-1.08-.87-.92-.82-.69-.76-.71-.77-.7-.86c-.88-1.08-1.39-.86-1.84-2l-.34-.84c-.05-.12-.44-.32-.63-.47l-.79-.61-1.13-1.08-1.49-1.38-2.25-1.82-.8-.62-.62-.47-.64-.41-.74-.4-.81-.67-1.93-1.27-.92-.59-1.05-.68-1.08-.55-2.56-2.05-2.71-2.3-.75-.79-.81-.74-1.78-1.68-.54-.66-.63-.75-.52-.61c-.12-.14-.18-.67-.34-.77l-.93-.63c-.36-.24-.65-1.17-.86-1.67-.38-.9-1.1-.69-1.7-1.55l-1.2-1.71-.3-.78-.66-.66-1.68-1.67-1.03-.8-.79-.65-.8-.71-.56-.57-.69-.66-.79-.68-.59-.52-.7-.74-.91-.64-.57-.55-1.94-1.95c-.07-.07-.59.02-.67.09l-.79.68-.97.85-1.17,1.02-2.12,1.88-1.75,1.56-.97.84-.81.68c-.54.46-1.37,1.26-1.71,1.78l-.63.97-.75,1.15-1.11,1.31-1.15,1.37-.49.67-.44.6-.44.65-1.02,1.57-.44.68c-.08.12-.38.5-.49.57l-.87.55-.77.49c-.16.1.12.83-.02.96l-1.36,1.12-.83.69-1.29,1.15-.48.7c-.18.27-.65-.11-1.62.54l-1.07.71-.89.61-.62.46-1.44,1.11-.86.66-.72.63-.58.51-1.6,1.4-1.37,1.09-.85.62-1.49,1.09-2.29,1.67c-.2.14-.71.43-.83.61-.22.34-.69,1.06-.94,1.27l-1.01.83-1.21,1c-.16.13-.55.58-.68.75l-.48.64-.79,1.05-.63.79c-.08.11-.47.33-.64.42l-.75.41c-.61.34.18.94-1.5,2.05l-1.31.87-1.9,1.69c-.14.12-.81.11-.96.2l-.97.54-.92.55-.88.54-.84.6-.67.46-.94.63-1.17.94-1.9,1.63c-.22.19-.49,1.08-.46,1.37l.1.97c.02.16.07.66.06.82l-.12,1.23-.18,2.06-.18,3.05-.08,1.41-.09,2.41.28.95-.11,1.73-.19,1.02.11,1.76.09,1.42.07,1.25c0,.13-.46.65-.59.77-.11.1.75.22.73.39l-.12,1.2-.09.88.05.98.12.97-.55.68-.04,1.02v1.06l.13,1.47.14,1.03.23,1.2.21,1.11.07,1.76-.07,2.53c0,.32-.21,1.17-.26,1.33.1.11.62.69.61.88l-.06,1.8-.08,1.1-.1,1.23v1.19l.15,2.02.1.95.12.9-.36.73.26,1.11-.13,3.49-.14,1.43.12,1.19.19,1.81c.12,1.2-.86,1.91-.71,2.83l.19,1.2c.06.35-.04,1.25-.1,1.59l-.16.91-.06,1.09.16,1.73.02,1.09v.7l-.04,1.32.03,1.56.1,1.24.09,1.07.15.76-.03.75.04,1.02.16,1.18.29,2.13c.08.62-.4.93-.07,2.43l.33,1.5.12,1.42c0,.14-.22.65-.1.73l.65.48c.21.15.9.29,1.15.25l1.36-.24c.21-.04.89-.14,1.07-.12l1.43.16.81.23,2.19-.07.9-.04,3.8-.19,1.06-.02,1.1-.02,1.49-.03.95-.06,1.23-.1,1.03.02.55.17,2.95-.09.93-.16,2.17-.08c.18,0,.11-.88.08-1.07l-.21-1.41-.17-1.14-.2-1.37-.22-1.54c-.11-.77.26-1.06.18-1.95l-.13-1.31-.24-2.44-.12-1.24v-1.77l-.04-2.91-.08-1.82-.11-2.09v-3.83l.2-2.87.04-2.49.02-1.49.21-4.65-.09-1.17.07-1.44.13-2.51.21-1.13.09-1.12.2-1.14c.06-.35,1.03-1.44,1.49-1.53l1.52-.29,1.07-.08,3.72-.18,4.6-.17,5.22-.14,2.17-.08,2.11-.11h2.51l1.31-.24,4.97.06,5.93.16,1.33.2.82.23,1.74.16,1,.09c.15,0,.71.13.86.1l1.77-.31.87.32,1.22-.07,1.62-.11,1.77-.06,1.1-.02,1.67-.02s-.04.36-.08.78l1.57-.19.96-.04,4.98-.18,3.54-.13,1.27.02c.58,0,2.68,1.01,2.98,2.54l.17.88c.14.7-.68.59-.25,2.4l.22.93.22,3.42.15,2.36.17,1.72c.02.19-.02.54-.15.95l-.03,2.76v3.2l.24,1.75.1.84.07,1.48.06,1.15c.05,1.03-.38,1.47-.3,2.1l.11.86.13,1.02c.03.27-.02,1.08-.04,1.36l-.13,1.38.14,1.92-.31,1.19-.09,2.06v1.5l.04,2.96v1.08c-.02.2-.12.91-.21,1.08l-.44.88.4,1.32c.06.19.18.55.3.63s.72.3.86.31l1.71.05,1-.04,1.23-.02.94-.05,1.19-.16,1.52-.02h2.48l.79-.26c.18-.06.83-.04,1.02,0l1.13.3,1.07.29c.13.04.68-.18.83-.23l.78-.28c.25-.09.94-.12,1.2-.07l.89.17,2.46.18,1.12.27,1.32.21c.13.02.55-.03.66-.05l1.02-.16c.16-.03.56-.18.61-.33.09-.3.17-.63.27-.76l.37-.31v-.05ZM92.41,56.07l1.75-1.9.92-.99.71-.76c.2-.22.61-1,.72-1.29.07-.19-1.15-.04-1.29.1l-.66.68-.55.66-1.57,1.89-.97,1.51c-.08.12.84.23.95.11h0ZM140.19,52.04c-.12-.11-.62-.65-.59-.49l.15.87s.44-.38.44-.38ZM140.29,52.13l-.4.4.33.65.61,1.22.46-.25.79.45.02-.66-.75-.88-.5-.44-.56-.5h0ZM136.93,54.21l-.54-.79c-.07-.1-.57-.55-.68-.61-.16-.09-.76-.13-.88-.11l.66,1.55c.07.16.25.52.39.46l.68-.27.37-.24h0ZM137,54.36l-.25.29.18.18.32-.25-.25-.23h0ZM137.37,54.69l-.26.33.17.2.37-.29-.29-.24h0ZM143.22,55.19c-.47-.57-.92-.21-.29.3l.29-.3ZM137.75,55.02l-.3.37.16.27.41-.37-.28-.27h0ZM138.11,55.38l-.37.41.22.25.38-.37-.24-.3h0ZM143.51,55.54l-.22.24c.09.07.14.1.17.15l.22-.2-.16-.2h0ZM138.43,55.8l-.35.37.3.12.21-.19-.17-.3h0ZM143.84,55.92v.6l.39-.14-.39-.45h0ZM91.14,55.97l-1.26,1.09.48.56,1.26-1.09-.48-.56ZM138.75,56.28l-.18.19.18.18.19-.19-.19-.19h0ZM139.02,56.93l.19-.19-.19.19ZM144.57,56.65l-.18.18.18.18.18-.18-.18-.18ZM89.25,57.74l-.18.18.18.18.18-.18-.18-.18ZM151.22,64.33c-.19,0-.76.03-.75.03l.55.54.21-.56h-.01ZM151.55,64.56l-.35.49.94.81.31-.39c-.12-.18-.3-.46-.36-.5l-.54-.4h0ZM152.61,65.67l-.19.47,1.04,1.03,1.88,1.54,1.73,1.72.45.79c.12.22.29.62.38.71l1.42,1.39.52.71,1.98,1.9c.26.25.6.58.68.73l.4.74.58,1.07s.46-.58.57-.48l.8.75,1.14,1.08.76.67.75.4c.26.14.9.47,1.04.72l.42.74.75.66.66.47.84.62,1.64.92.9.55.94.6c.17.11.73-.13,1.09-.29l-1.1-.93-.98-.78-.84-.64-.61-.46-1.27-.96-.6-.48-.89-.89-1.64-1.3-.76-.66-.73-.77-.72-.76-.67-.71-.42-.73-.85-.65c-.13-.1-.48-.39-.53-.5l-.82-1.64c-.07-.13-.75-.33-.86-.44l-1.61-1.52-2.11-1.9-2.64-2.14c-.23-.19-.83-.57-1.09-.7l-.75-.36-.64-.3h-.04ZM225.48,104.46l.43-1.22.27-.77.38-1.14.37-1.09.41-1.05.65-1.28c.07-.13-.31-.61-.36-.75l-.27-.84c-.04-.13-.31-.26-.88-.59-.25.35-.09.13.24-.34l-.8-.21c-.15-.04-.7-.24-.81-.32l-1.95-1.56-.84-.61-.88-.6-1.29-.9-.62-.45-.89-.67-.61-.52c-.46-.4-1.37-.91-2-1.13l-1.38-.47c-.12-.04-.53-.41-.64-.48l-.88-.62-.92-.5-1.08-.69-.86-.38-.63-.34-.65-.49c-.74-.55-.36-.84-.92-1.18l-.7-.42-.6-.49-.87-.57-.71-.45-1.63-1.23-.89-.87-.9-1.02c-.12-.13-.84-.3-.85-.13l-.07,1.1-.07,1.18-.13,1.97-.33,1.25.05,1.16-.13,1.47-.36,2.03-.08.82-.19,2.54-.15,1c-.09.57-.23,1.67-.19,2.18l.13,1.56c.03.4-.14,1.27-.22,1.62l-.21.92c-.11.47.85,1.34.81,1.32l1.05.43.99.85.97.83.88.24.93.51.95.52.97.51,1.67.86.98.45,1.24.27,2.38.21,1.68.15.88.17,1.15.29c.21.05.84.19,1.04.15l1.1-.21,1.12-.22,2.14-.09,1.15-.05,1.31-.06c.14,0,.66-.25.71-.39l.42-1.18h0ZM16.62,106.36l1.62.04,2.33.07,1.09-.39,1.51-.34,1.11-.27.85-.21.96-.24,2.04-.35c.18-.03.71-.62.87-.71l.72-.39.93-.51.71-.39.68-.37,1-.54,1.07-.64.9-.62.89-.62c.27-.19.53-.95.38-1.22l-.48-.83c-.06-.11-.22-.68-.19-.81l.23-1.15c.05-.27,0-.92-.04-1.2l-.25-1.27-.23-1.13-.19-.94c-.15-.73.14-.63.05-1.57l-.09-.98-.09-.92-.09-.66-.24-1.71-.2-1.5-.04-1.17-.04-1.11-.08-.93-.1-.9c-.02-.17-.23-.91-.37-.82l-.89.53-1.66,1.51-1.56,1.33-1.05.83-.61.48-1.2.95-.8.32-.54.6c-.28.31-1.01.89-1.37,1.08l-.74.39-.97.51-.73.38-.72.38-.72.38-.72.37-.93.48-.73.38-.7.38-.96.54-.86.58-.77.65-.63.46-.69.42-.63.41-2.12,1.57-1.52,1.13-1.5,1.35c-.14.12.07.79.13.96l.38,1.13.33.73.4.72.36.71.36,1.08.34,1.21.39,1.38c.06.22.6.66.83.67l.87.05,3.32.19,1.42.1-.03-.02ZM27.01,82.52c.19-.07.67-.44.78-.55l1.21-1.25c.14-.14.03-.98-.01-1.19-.04-.19-.93.05-1.09.2l-3.06,2.87c-.12.11-.12.8.02.75l1.26-.48.9-.35h-.01ZM23.44,84.73c.23-.1.85-1.18.61-1.14-.18.03-.81.18-.93.28l-.87.72c-.08.06-.03.39,0,.66,0,0,1.19-.52,1.19-.52ZM20.85,84.84l-.47,1.11,1.11.47.47-1.11-1.11-.47ZM180.67,86.18l-.04-.38.04.38ZM180.91,158.36l-.29-.88-.2-1-.19-.94-.21-1.08c-.16-.8.77-.16.64-1.43l-.22-2.09-.14-1.37c-.02-.19,0-.72.03-.9l.25-1.19c.03-.15.41-.32.4-.47l-.09-1.49.02-1.56c0-.18-.17-.59-.29-.91-.03,0,.23-.04.55-.1v-4.39s0-1.08,0-1.08l.05-1.48.06-1,.15-.81-.03-.95-.07-2.04c.65-.19.87-.26.17-.05-.18-.47-.33-.79-.29-.91l.27-.81.34-.84c.2-.49.13-1.79.04-2.32l-.12-.81-.13-1.08.07-1.01.14-1.49.17-1.19-.07-1.06-.09-1.13.1-1.78.14-2.57.06-1.02-.06-1.13-.08-1.5-.05-1.08c0-.13.12-.57.22-.91-.43-.53-.57-.65-.35-1.34l.32-.99c.05-.16-.57-.56-.57-.73l-.03-1.49c0-.17.56-.7.42-.53l-.13-1-.18-1.37-.14-1.08-.08-.64v-3.6c0-.15,0-.57-.02-.72l-.16-1.24-.22-1.73-.05-1.1.03-1.17-.03-1.09c0-.14-.52-.54-.64-.61l-.93-.51-.75-.41-.83-.45c-.16-.09-.3.67-.26.86l.22.9c.31,1.27-.25,1.72-.02,2.85l.21,1.03.11.76.1,3.59.09,1.06.08,2.62.06,1.68.28,1.14c.05.21.26.69.25.82l-.09,1.31-.05,1.28.09,1.03.24,1.41.13.82c.04.22-.03.84-.14,1.05l-.48.96c-.07-.03.5.19.67.26s.13.68.11.89l-.1,1.23c-.03.38.16,1.25.04,1.61l-.4,1.22c-.05.16-.13.8-.12.98l.04,1.23.07,1.42.16,1.06.24,1.57.04,2.42-.08,1.13-.13,1.33-.24.89c-.05.19.57.65.38,2.14l-.19,1.55-.13,1.08-.09,1.7.03,1.17.03,1.15c0,.39.07,1.29-.02,1.68l-.2.91.28.71-.08,3.17-.17,1.12.18,1.04.19,1.04.19,1.88c.07.68-.67,1.42-.41,2.17l.31.89.24,1.71.04.6-.03.64.13,1.62.22,1.02.33,1.49.34,1.55.19,1.08.18,1.01.31,1.15c.03.12-.5.69-.42.79l.69.78.05-2.34.08-3.48c0-.14-.32-.71-.37-.84l-.3-.91v-.03ZM16.39,88.85l.85-.31.71-.35.66-.45c.07-.3.12-.5.1-.42l-.98.31-.76.36-1.27.81c0-.2,0,.21,0,.31l.69-.26ZM14.99,89.05l-.18.18.18.18.18-.18-.18-.18ZM14.26,89.41l-.18.18.18.18.18-.18-.18-.18ZM11.16,91.59l1.28-.87c.14.36-.05-.32-.15-.25l-1.08.74-.79.54.2.21.54-.36h0ZM9.9,91.96l-.18.18.18.18.18-.18-.18-.18ZM7.07,95.16c.11-.05.3-.34.64-.83-.26.03.14-.02.72-.08l.33-1.25-1.16.51-.26.47-1.7.98.24.74,1.2-.54h0ZM8.39,106.29l-.62-1.47-.39-.74-.07-.78-.53-.74-.33-.77-.51-1-.31-1.11-.44-1.49v-1.23l.19-1.61-.83.53-.73.37-1.11,1.1-.47.69.46.9.39,1.4.84,1.44.4,1.09.35,1.49.28.74.47,1.23.87.06,2.09-.09h0ZM36.72,143.79l-.07,1.33c0,.2.19.88.28,1.07l.33.77.23-2.43.16-.95-.02-2.45-.03-1-.15-1.27c-.18-1.52.27-1.91.16-2.35l-.23-.9-.14-2.04v-2.57s-.03-.66-.03-.66l.04-.76.04-.75v-1.2l-.09-1.24-.12-.98c-.09-.75.37-1.14.27-2.5l-.07-.98v-.94l.07-2.5-.08-2.07-.09-1.17-.03-1.11-.29-1.68-.2-1.29.05-4.63-.15-2.07-.21-1.55c.42-.09-.42.06-.61.13l-.79.28-.9.32c-.15.05-.12.65-.1.82l.17,1.34.13.99.14.86.23,3.16.11.89.11,1.71c0,.12-.35.81-.22.54l.73,1.54c.32.67-.22,1.18-.08,1.94l.16.89.19.97.15.98c.02.15-.14.53-.09.68l.25.91.07,2.1-.36,1.12.02,1.31.11.86.27,1,.32,1.2c.11.4.11,1.34.07,1.81l-.11,1.51c-.07.96.47,1.28.26,3.18l-.11,1.02-.03.76.15,1.9.09,1.14.08,1-.03,2.02h0ZM50.99,172.33c.07.14.21.66.2.8l-.07,1.47-.05,1.13c0,.13-.08.65-.18.73l-.57.48c-.14.12.12.78.1.97-.07,1.16-1.11,1.61-.52,2.63l-.08.43c0,.23.02.75-.04.92l-.27.76-.25,1.75-.16,1.15-.31.8-.22,1.67-.4.66-.2.8-.25.92-.36.99,1.57-.18,1.22-.14,1.69-.25,3.59-.05h.99l2.82.02.86.03,3.67.2c.15,0,.78.37.92.33l1.09-.34,1.07-.34c.17-.06.87.02,1.1.02l4.26.13.82.07,1.19.13,1.73.03h1.07l.97.17,4.83.04h1.14l1.72-.08.84-.05.84.16c1.16.21.71-.26,1.69-.21l.97.05,1.31.11,1.12.25c.15.03.7.1.85.08l1.64-.25h5.05c.19,0,.68-.13.69-.28l.11-1.53.1-1.46-.3-2.07-.27-1.53-.25-1.16-.21-.99-.14-.78-.23-1.39-.26-1.55-.09-1.14.13-3.59-.02-1.4-.16-1.01-.14-.87-.19-1.32-.2-1.98.02-1.75.06-1.48.03-.8.08-1.67.04-.8.16-4.01.16-3.41.24-1.92.11-.84.19-2.96.19-1.52c.16-1.3,1.61-2.62,2.68-2.41l1.2.23,1.07.36c.18.06.81.18.99.18h1.14l.98.04c.14,0,.67.2.81.26l1.01.47c.33.15,1.08.05,1.56.03l1.09-.05,1.04-.2,1.03-.35.91-.22c.18-.04.71-.17.69-.35l-.16-1.11-.19-2.24-.08-2.6.08-5.63.36-1.3c.04-.14-.57-.24-.75-.25l-1.54-.09-1.2-.13c-.28-.03-.73-.15-.91-.02l-.52.4c-.59.46-1.15-.36-1.69-.33l-1.42.08-1.41.17-1.54.11-1.82.07-1.28.05c.01.07-.06-.35-.13-.74l-1.39.15-.84.06-2.17.14-2.61.23-1.03.08-2.83.21-1.24.09c-.2,0-.9.07-.96.26l-.37,1.11-.5,1.35c-.1.26.06,1.15.05,1.44l-.06,1.81-.16,4.35-.03.78.06,1.06c0,.16-.06.49-.22.88l-.21,3.61-.1,1.72.04,1.05.18,1.5.24,2.8.15,1.76c-.19.29-.43.65-.4.82l.25,1.44.09,1.48-.04,1.15.11,1.11.16,1.44-.17,1.14c-.04.27-.05,1.1-.01,1.38l.15,1.11.29,2.2.18,1.36.13,1.16.14,1.75c-.29.11-.84.35-.75.43l.73.66c-.1-.23.24.46.25.6l.29,2.73c.02.15-.43.71-.58.71l-2.5-.05-1.12-.25-1.08-.09-1.54-.13-1.38.06-1.47.13-1.1.1-.99.1-.81.11h-1.09l-1.02.22c-.36.08-1.29.16-1.61.02l-.78-.35-.97-.18c-.16-.03-.69.18-.84.24l-.74.33c-.16.07-.77.13-.93.11l-.9-.15-2.44-.24-.79-.14-1.71-.41c-.2-.05-.85.16-1.05.2l-1.02.19-.83.09h-3.28l-1.17.14c-.88.1-1.98-.72-2.18-1.42l-.32-1.08.56-.3c-.02.08.2-.64.26-.85.05-.16-.55-.43-.59-.59l-.32-1.24-.39-1.69-.03-2.04v-1.23l-.16-.84-.21-.95c-.02-.11-.69.04-.66.15l.34,1.13c.04.13-.17.64-.18.77l-.19,1.32c-.11.77.4.72-.06,1.2l-.39.3h0ZM187.44,181.26c-.03-.12.14-.85.11-.69l-.16-1.27-.17-1.33-.46-.64c-.06-.09.05-.49.08-.66l.19-.99c.03-.16-.22-.68-.29-.86-.23-.57-.18-1.01.16-1.49l-.47-.8c-.07-.12-.19-.72-.14-.86l.38-.99c-1.28,0-2.01-.85-2.4-2.1l-.29-.92-.19-.77-.05-1.71c0-.25-.85-.31-.81-.1l.17.95-.27,1.63-.08.89-.1,2.36-.32.91-.16,1.97v1.17l.02,1.49v1.37c0,.49-.55,1.41-1.34,1.45l-1.19.06-1.66.08-.86.23c-.17.04-.79-.03-.96-.08l-.87-.22-.85-.23-2.24.02-2.01.12-2.51.1-3.64.06-1.35.06-1.43.09-.79-.28-1.18-.27c-.19-.04-.85-.1-1.04-.09l-1.16.06c-.09.3-.21.7-.18.59h-1.98l-4.72-.05-3.82-.03.22-1.26.15-.84.15-1.06.04-7.05c.07-.13.32-.61.32-.68l.1-6.68.13-2.74v-3.76s-.12-.9-.12-.9l-.04-1.35.08-2.24.09-2.4.06-.89-.14-1.84-.09-1.1-.13-4.54-.22-.94-.11-2.08-.09-1.39-.13-1.51.15-.72-.41-1.31c-.04-.13-.59-.47-.73-.47l-2.74-.07-10.59-.02-.82-.25c-.26-.08-1-.09-1.26,0l-1.09.34c-.1.03-.55.08-.67.08h-.65l-1.07-.03-4.63-.22-2.66-.14-1.81-.1.04,1.05.19,5.01.23,2.25.11.89.14,1.7.11,1.1c.02.18.54.65.72.69l.85.19.99.19,1.54.29,1.05.2c.43.08,1.43.15,1.87.12l2.51-.19,1.84-.27.95-.23,1.15-.28c.18-.04.88,0,1.06.07l.86.29c.5.17,1.28,1.22,1.41,1.75l.22.93.21.91.38,2.12.17,2.66.12,4.02.06,2.08.04,1.29.11,1,.15,1.81v5.12l-.11,1.4-.02,2.26-.16,1.5-.15,1.03-.23,1.6-.09,2.78-.09,2.12-.18,1.54-.2,1.79-.14,1.2-.24,2.11-.29,2.45-.3.99c-.11.37.94.47,1.33.46l2.18-.07,2.92-.09,1,.13h4.36l.92-.2,1.06.08.99.05,1.88-.12.84.19,1.99-.03,1.21-.14.91.13,1.69-.07,1.77-.13,1.15-.1,2.8.11.93.19,1.23-.02,1.53-.06,2.59-.11,1.81.02,3.99.14.82-.03,4.02.06,2.43.13h1.04l2.23-.15c.28.21.6.44.49.36l1.05.05,2.64.12-.53-.78c-.07-.1-.23-.58-.26-.71l-.22-1.03-.38-1.78-.3-1.09-.4-.82c-.1-.2-.28-.85-.29-1.06l-.1-1.14-.25-1.06-.27-.99.06-.04ZM84.23,177.08l1.95.08c.17,0,.55-.56.53-.73l-.16-1.09-.15-1.02-.22-1.55-.15-1.01-.18-1.2c-.03-.18.01-.85.03-1.03l.12-1.03-.15-1.55-.24-2.45-.12-1.29v-3.91s-.11-2.57-.11-2.57l-.08-1.72-.12-2.33.09-1.84.22-2.5.05-1.06-.04-1.85v-1.4l.12-1.99.11-2.02-.07-1.19.07-2.15.09-2.45.28-.81.08-1.2c.01-.19-.44-.66-.66-.65l-1.21.05c-.12,0-.72.29-.75.4l-.4,1.76c-.04.16-.43.59-.42.75l.06,1.08v1.8l-.16,4.39-.04,1.1.06,1.03c.01.18-.05.46-.24.93l-.19,3.26-.14,2.37.09,1.12.19,1.13.25,3.1c.1,1.2-.34,1.29-.17,2.64l.14,1.09.06,1.48v1.38l.22,2.25-.14,1.2.05,1.68.15,1.13.19,1.5.22,1.72.16,1.22.09,1.43c0,.14-.58.35-.63.48s.09.58.21.66c.12.07.59.29.65.4.08.16.19.95.37.96l.04.02ZM132.8,182.06l.15-1.4.23-2.07.18-1.19.17-1,.22-.83.1-.99.56-1,.02-2.04-.21-2.43v-3.49l.22-.77-.03-1.32-.03-1.1.04-1.08.02-1.56-.18-1.95-.19-1.71-.17-1.2-.22-1.71-.06-1.59-.13-1.04-.27-.78-.15-1.07-.21-.76-.17-1.2-1.47-.06-.82.38.31,1.17.37,2.17.15,2.67.18,6.06v1.39l.24.92.04,1.53.11,4.54c0,.21-.25,1-.32,1.23l.12,1.09.04,1.79-.2,1.59-.18,1.38-.15.88-.19.91.06,2.55-.08,2.16-.23,1.21-.17,2.07-.2,1.2-.16,2.08-.17,1.21-.21,1.34-.05,1.3,2.55-.13.32-3.76.22-5.59h0ZM39.54,149.88l-.58-1.3c.33-.28.02-.02-.13.11v10.16l.74.45-.02-9.42h0ZM34.47,157.43v-2.21l-.05-4.81c0-.16-.25-.82-.32-.97l-.35-.74v8.07l-.18.84c-.04.17.04.84.12,1l.63,1.17.14-2.35h0ZM34.5,190.77l.23.76c-.12.32-.23.6-.16.41l1.06-.16c.31-.05,1.15-.2,1.26-.49l.34-.9c.05-.12.34-.48.46-.64.09-.12-.54-.24-.59-.39-.05-.18-.13-.7-.14-.9l-.05-1.86-.04-1.06-.07-1.12-.07-1.11-.04-1.06v-1.5l.05-1.39.17-1.18.05-.97.04-1.55.1-1.37.24-1.22.21-1.13.33-2.43.07-.72-.07-.79-.12-1.41.24-.83c.08-.28-.14-1-.26-1.31l-.53-1.39c-.1-.26-.02-1.01,0-1.29l.18-2.47c.02-.28-.77-.27-.78,0l-.07,2.56c0,.37-.11,1.21-.23,1.51l-.4,1.01-.36.81c-.25.58.48.59-.06,2.02l-.19.5-.02.69-.04,1.15c0,.14-.21.38-.64.88-.03-.53,0,.05.02.32l.03,1.07.02.94c0,.19-.05.7-.1.86l-.24.96-.2,1.04-.17,1.16-.14.99-.13.84c-.03.22.07.89.11,1.12l.16,1.03c.02.13-.13.62-.11.57l.08.89-.03,1.02-.02.69.08.85.12,1.28.35.49-.39,1.15c-.09.28-.3.79-.23.98l.25.82.39,1.25h.05ZM180.42,176.85l.72.72-.04-1.47-.3-.83-.12-2.12v-1.54c.02-1.27-.99-1.22-1.37-2.41l-.45-1.41-.19-1.18-.04-1.47c0-.22-.73-.26-.73-.03v1.41l-.13,1.12-.29,3.95-.42,1.22.02,1.8v1.48c.02.28-.09,1.31.18,1.33l1.71.09,1.13.02c.15,0,.34-.57.36-.69.29-.41.39-.55-.03.04v-.03ZM51.05,171.75c.02-.06-.1.28-.15.41l.15-.41ZM148.62,176.34c-.08-.37-.17-.77-.12-.56.14.65.16.74.12.56ZM175.97,176.28l-.3.32.28.8.02-1.12h0Z" fill="#fff"/>
  <path d="M187.44,181.26l.27.99.25,1.06.1,1.14c.02.21.2.86.29,1.06l.4.82.3,1.09.38,1.78.22,1.03c.03.12.19.61.26.71l.53.78-2.64-.12-1.05-.05c.1.07-.21-.15-.49-.36l-2.23.14h-1.04l-2.43-.12-4.02-.06-.82.03-3.99-.14-1.81-.02-2.59.11-1.53.06-1.23.02-.93-.19-2.8-.11-1.15.1-1.77.13-1.69.07-.91-.13-1.21.14-1.99.03-.84-.19-1.88.12-.99-.05-1.06-.08-.92.21h-4.36l-1-.14-2.92.09-2.18.07c-.39,0-1.44-.09-1.33-.46l.3-.99.29-2.45.24-2.11.14-1.2.2-1.79.18-1.54.09-2.12.09-2.78.23-1.6.15-1.03.16-1.5.02-2.26.11-1.4v-5.12l-.15-1.81-.11-1-.04-1.29-.06-2.08-.12-4.02-.17-2.66-.38-2.12-.21-.91-.22-.93c-.12-.52-.91-1.58-1.41-1.75l-.86-.29c-.18-.06-.87-.11-1.06-.07l-1.15.28-.95.23-1.84.27-2.51.19c-.45.03-1.45-.04-1.87-.12l-1.05-.2-1.54-.29-.99-.19-.85-.19c-.18-.04-.7-.52-.72-.69l-.11-1.1-.14-1.7-.11-.89-.23-2.25-.19-5.01-.04-1.05,1.81.1,2.66.14,4.63.22,1.07.02h.65c.11,0,.56-.04.67-.07l1.09-.34c.25-.08,1-.07,1.26,0l.82.25,10.59.02,2.74.07c.14,0,.68.34.73.47l.41,1.31-.15.72.13,1.51.09,1.39.11,2.08.22.94.13,4.54.09,1.1.14,1.84-.06.89-.09,2.4-.08,2.24.04,1.35.11.9.02,1.2v2.56l-.14,2.74-.1,6.68c0,.07-.24.55-.32.68l-.04,7.05-.15,1.06-.15.84-.22,1.26,3.82.03,4.72.03h1.98c-.03.12.09-.28.18-.58l1.16-.06c.19,0,.85.05,1.04.09l1.18.27.79.28,1.43-.09,1.35-.06,3.64-.06,2.51-.1,2.01-.12,2.24-.02.85.23.87.22c.17.04.8.12.96.08l.86-.23,1.66-.08,1.19-.06c.79-.04,1.34-.96,1.34-1.45v-2.86s0-1.17,0-1.17l.15-1.97.32-.91.1-2.36.08-.89.27-1.63-.17-.95c-.04-.21.81-.15.81.1l.05,1.71.19.77.29.92c.39,1.25,1.12,2.11,2.4,2.1l-.38.99c-.05.14.07.73.14.86l.47.8c-.33.48-.39.92-.16,1.49.07.18.32.7.29.86l-.19.99c-.03.17-.15.57-.08.66l.46.64.17,1.33.16,1.27c.03-.17-.14.57-.11.69l-.06.05Z" fill="#fff"/>
  <path d="M180.91,158.36l.3.91c.05.14.37.7.37.84l-.08,3.48-.05,2.34-.69-.78c-.09-.1.45-.67.42-.79l-.31-1.15-.18-1.01-.19-1.08-.34-1.55-.33-1.49-.22-1.02-.13-1.62.03-.64-.04-.6-.24-1.71-.31-.89c-.26-.75.48-1.49.41-2.17l-.19-1.88-.19-1.04-.18-1.04.17-1.12.08-3.17-.28-.71.2-.91c.09-.39.03-1.28.02-1.68l-.03-1.15-.03-1.17.09-1.7.13-1.08.19-1.55c.18-1.49-.43-1.96-.38-2.14l.24-.89.13-1.33.08-1.13-.04-2.42-.24-1.57-.16-1.06-.07-1.42-.04-1.23c0-.17.07-.81.12-.98l.4-1.22c.12-.36-.07-1.23-.04-1.61l.1-1.23c.02-.2.06-.82-.11-.89s-.74-.29-.67-.26l.48-.96c.1-.21.17-.83.14-1.05l-.13-.82-.24-1.41-.09-1.03.05-1.28.09-1.31c0-.13-.2-.6-.25-.82l-.28-1.14-.06-1.68-.08-2.62-.09-1.06-.1-3.59-.11-.76-.21-1.03c-.23-1.12.32-1.58.02-2.85l-.22-.9c-.05-.19.09-.95.26-.86l.83.45.75.41.93.51c.12.07.64.46.64.61l.03,1.09-.03,1.17.05,1.1.22,1.73.16,1.24c.02.15.02.58.02.72v3.6l.08.64.14,1.08.18,1.37.13,1c.15-.16-.42.36-.42.53l.03,1.49c0,.17.63.57.57.73l-.32.99c-.22.69-.07.82.35,1.34-.1.35-.22.78-.22.91l.05,1.08.08,1.5.06,1.13-.06,1.02-.14,2.57-.1,1.78.09,1.13.07,1.06-.17,1.19-.14,1.49-.07,1.01.13,1.08.12.81c.08.54.16,1.83-.04,2.32l-.34.84-.27.81c-.04.12.11.44.29.91.7-.21.48-.14-.17.05l.07,2.04.03.95-.15.81-.06,1-.04,1.48v2.52s0,2.95,0,2.95c-.3.06-.57.11-.54.1.13.32.3.72.29.91l-.02,1.56.09,1.49c0,.15-.37.32-.4.47l-.25,1.19c-.04.18-.05.71-.03.9l.14,1.37.22,2.09c.13,1.26-.8.63-.64,1.43l.21,1.08.19.94.2,1,.29.88v.03Z" fill="#fff"/>
  <path d="M84.23,177.08c-.18,0-.28-.8-.37-.96-.06-.11-.53-.33-.65-.4-.12-.07-.27-.52-.21-.66s.64-.34.63-.48l-.09-1.43-.16-1.22-.22-1.72-.19-1.5-.15-1.13-.05-1.68.14-1.2-.22-2.25v-1.38l-.06-1.48-.14-1.09c-.17-1.35.26-1.43.17-2.64l-.25-3.1-.19-1.13-.09-1.12.14-2.37.19-3.26c.19-.46.25-.75.24-.93l-.06-1.03.04-1.1.15-4.39v-1.8l-.06-1.08c0-.16.38-.59.42-.75l.4-1.76c.03-.12.62-.4.75-.4l1.21-.05c.22,0,.67.46.66.65l-.08,1.2-.28.81-.09,2.45-.07,2.15.07,1.19-.11,2.02-.11,1.99v1.4l.03,1.85-.05,1.06-.22,2.5-.09,1.84.12,2.33.08,1.72.1,2.57v3.91s.13,1.29.13,1.29l.24,2.45.15,1.55-.12,1.03c-.02.18-.06.85-.03,1.03l.18,1.2.15,1.01.22,1.55.15,1.02.16,1.09c.02.17-.36.73-.53.73l-1.95-.08-.03-.02Z" fill="#fff"/>
  <path d="M132.8,182.06l-.22,5.59-.32,3.76-2.55.13.05-1.3.21-1.34.17-1.21.16-2.08.2-1.2.17-2.07.23-1.21.08-2.16-.06-2.55.19-.91.15-.88.18-1.38.2-1.59-.04-1.79-.12-1.09c.07-.22.32-1.02.32-1.23l-.11-4.54-.04-1.53-.22-.92v-1.39l-.19-6.06-.15-2.67-.37-2.17-.31-1.17.82-.38,1.47.06.17,1.2.21.76.15,1.07.27.78.13,1.04.06,1.59.22,1.71.17,1.2.19,1.71.18,1.95-.02,1.56-.04,1.08.03,1.1.03,1.32-.21.77v3.49l.21,2.43-.02,2.04-.56,1-.1.99-.22.83-.17,1-.18,1.19-.23,2.07-.15,1.4h-.02Z" fill="#fff"/>
  <path d="M36.72,143.79l.03-2.02-.08-1-.09-1.14-.15-1.9.03-.76.11-1.02c.2-1.91-.33-2.22-.26-3.18l.11-1.51c.03-.47.03-1.41-.07-1.81l-.32-1.2-.27-1-.11-.86-.02-1.31.36-1.12-.07-2.1-.25-.91c-.04-.15.12-.52.09-.68l-.15-.98-.19-.97-.16-.89c-.14-.76.4-1.27.08-1.94l-.73-1.54c-.13.27.23-.41.22-.54l-.11-1.71-.11-.89-.23-3.16-.14-.86-.13-.99-.17-1.34c-.02-.17-.06-.76.1-.82l.9-.32.79-.28c.19-.07,1.02-.22.61-.13l.21,1.55.15,2.07-.05,4.63.2,1.29.29,1.68.03,1.11.09,1.17.08,2.07-.06,2.5v.94l.06.98c.1,1.35-.36,1.75-.27,2.5l.12.98.09,1.24v1.2l-.04.75-.04.76.02.66.02,1.63v.94l.13,2.04.23.9c.11.44-.34.83-.16,2.35l.15,1.27.03,1,.02,2.45-.16.95-.23,2.43-.33-.77c-.08-.2-.29-.87-.28-1.07l.07-1.33h0Z" fill="#fff"/>
  <path d="M180.42,176.85c.42-.59.32-.45.03-.04-.02.13-.21.7-.36.69l-1.13-.02-1.71-.09c-.27,0-.16-1.05-.16-1.33v-1.48l-.03-1.8.42-1.22.29-3.95.13-1.12v-1.41c0-.22.73-.19.73.03l.04,1.47.19,1.18.45,1.41c.38,1.19,1.39,1.14,1.38,2.41v1.54l.11,2.12.3.83.04,1.47-.72-.72v.03Z" fill="#fff"/>
  <path d="M34.47,157.43l-.14,2.35-.63-1.17c-.08-.16-.16-.83-.12-1l.18-.84v-8.07l.35.74c.07.15.31.81.32.97l.05,4.81v2.21h0Z" fill="#fff"/>
  <path d="M39.54,149.88l.02,9.42-.73-.45v-10.16c.15-.13.46-.39.13-.11,0,0,.58,1.3.58,1.3Z" fill="#fff"/>
  <path d="M51.38,172.03c.46-.48-.05-.42.06-1.2l.19-1.32c.02-.13.22-.64.18-.77l-.34-1.13c-.03-.11.64-.26.66-.15l.21.95.15.84v1.23l.04,2.04.39,1.69.32,1.24c.04.16.64.43.59.59-.07.21-.29.92-.26.85l-.56.3.32,1.08c.2.69,1.3,1.52,2.18,1.42l1.17-.13h3.28l.83-.1,1.02-.19c.21-.04.85-.24,1.05-.2l1.71.41.79.14,2.44.24.9.15c.17.03.77-.04.93-.11l.74-.33c.15-.07.68-.27.84-.24l.97.18.78.35c.32.14,1.25.06,1.61-.02l1.02-.22h1.09l.81-.11.99-.1,1.1-.1,1.47-.13,1.38-.06,1.54.13,1.08.09,1.12.25,2.5.05c.15,0,.6-.57.58-.71l-.29-2.73c-.02-.15-.36-.84-.25-.6l-.73-.66c-.09-.08.46-.31.75-.43l-.14-1.75-.13-1.16-.18-1.36-.29-2.2-.15-1.11c-.04-.28-.03-1.11.01-1.38l.17-1.14-.16-1.44-.11-1.11.04-1.15-.09-1.48-.25-1.44c-.03-.17.21-.53.4-.82l-.15-1.76-.24-2.8-.18-1.5-.04-1.05.1-1.72.21-3.61c.15-.39.23-.72.22-.88l-.06-1.06.03-.78.16-4.35.06-1.81c0-.29-.15-1.18-.05-1.44l.5-1.35.37-1.11c.06-.19.76-.25.96-.26l1.24-.09,2.83-.21,1.03-.08,2.61-.23,2.17-.14.84-.06,1.39-.15c.07.4.14.81.13.74l1.28-.05,1.82-.07,1.54-.11,1.41-.17,1.42-.08c.54-.03,1.1.79,1.69.33l.52-.4c.18-.14.63,0,.91.02l1.2.13,1.54.09c.18,0,.79.11.75.25l-.36,1.3-.08,5.63.08,2.6.19,2.24.16,1.11c.03.18-.5.31-.69.35l-.91.22-1.03.35-1.04.2-1.09.05c-.47.02-1.23.12-1.56-.03l-1.01-.47c-.13-.06-.66-.26-.81-.26l-.98-.04h-1.14c-.19,0-.81-.12-.99-.18l-1.07-.36-1.2-.23c-1.06-.2-2.51,1.11-2.68,2.41l-.19,1.52-.19,2.96-.11.84-.24,1.92-.16,3.41-.16,4.01-.04.8-.08,1.67-.03.8-.06,1.48-.02,1.75.2,1.98.19,1.32.14.87.16,1.01.02,1.4-.13,3.59.09,1.14.26,1.55.23,1.39.14.78.21.99.25,1.16.27,1.53.3,2.07-.1,1.46-.11,1.53c-.01.15-.5.28-.69.28h-5.05l-1.64.24c-.15.02-.7-.04-.85-.08l-1.12-.25-1.31-.11-.97-.05c-.97-.05-.52.43-1.69.21l-.84-.16-.84.05-1.72.08h-1.14l-4.83-.04-.97-.17h-1.07l-1.73-.03-1.19-.13-.82-.07-4.26-.13c-.23,0-.92-.08-1.1-.02l-1.07.34-1.09.34c-.14.04-.77-.32-.92-.33l-3.67-.2-.86-.03-2.82-.02h-.99l-3.59.05-1.69.25-1.22.14-1.57.18.36-.99.25-.92.2-.8.4-.66.22-1.67.31-.8.16-1.15.25-1.75.27-.76c.06-.17.05-.69.04-.92l.08-.43c-.59-1.02.45-1.47.52-2.63,0-.19-.25-.85-.1-.97l.57-.48c.1-.08.17-.6.18-.73l.05-1.13.07-1.47c0-.14-.13-.66-.2-.8l-.08-.16c.05-.13.17-.48.15-.41l.33.27-.02.02Z" fill="#fff"/>
  <path d="M34.5,190.77l-.39-1.25-.25-.82c-.06-.2.14-.71.23-.98l.39-1.15-.35-.49-.12-1.28-.08-.85.02-.69.03-1.02-.08-.89c0,.05.13-.44.11-.57l-.16-1.03c-.03-.22-.14-.89-.11-1.12l.13-.84.14-.99.17-1.16.2-1.04.24-.96c.04-.17.1-.68.1-.86l-.02-.94-.03-1.07c0-.27-.04-.85-.02-.32.43-.5.63-.74.64-.88l.04-1.15.02-.69.19-.5c.55-1.43-.19-1.44.06-2.02l.36-.81.4-1.01c.12-.3.22-1.14.23-1.51l.07-2.56c0-.28.8-.3.78,0l-.18,2.47c-.02.28-.1,1.02,0,1.29l.53,1.39c.12.31.34,1.03.26,1.31l-.24.83.12,1.41.07.79-.07.72-.33,2.43-.21,1.13-.24,1.22-.1,1.37-.04,1.55-.05.97-.17,1.18-.06,1.39v1.5l.05,1.06.07,1.11.07,1.12.04,1.06.05,1.86c0,.21.08.72.14.9.04.15.68.27.59.39-.13.15-.42.52-.46.64l-.34.9c-.11.29-.94.44-1.26.49l-1.06.16c-.07.19.03-.09.16-.41l-.23-.76h-.05Z" fill="#fff"/>
  <path d="M185.32,153.8c.12-.12.56-.59.46-.48l-.1-.95-.16-1.51-.07-2.04.15-1.7c0-.15.61-.3.55-.43-.07-.16-.27-.72-.26-.86l.06-1.11.07-.95.12-.91.29-2.2c.03-.21-.08-.67-.12-1.03l-.12-1.07.26-.72-.16-1.81c-.02-.19.03-.9.05-1.09l.16-1.08-.05-1.25-.06-1.44-.05-.74c-.02-.29.1-1,.2-1.28l.42-1.14c.07-.19.15-.88.11-1.08l-.2-1.1-.13-.75-.25-1.66.79.06c.22-.74-.98-.47-.59-1.53l.31-.85.38-.71c.06-.11.14-.54.13-.66l-.1-.88-.1-1.43c-.05-.82.27-1.15.64-1.59-.16-.27-.45-.72-.44-.88l.05-1.52.03-1.02.03-.54.16-2.3.24-1.23.25-1.2.17-.79.14-1.05.09-1.47.12-2.03-.11-1.03-.15-1.83c0-.13.1-.65.13-.78l.38-1.56c.62-.15.7-.17-.13.03l-.06-.98-.04-1.52.13-.83.13-.96.29-2.17c.02-.18-.03-.84-.06-1.01l-.14-.83c-.03-.16.16-.7.19-.86l.31-1.35c.04-.18,0-.72-.02-1.17-.71-.16-.72-.16.09.02l-.07-1.07.27-.69-.26-1.2c-.08-.35.03-1.09.11-1.35l.27-.93c.39-1.35.41-3.84.77-2.31l.24,1.03.18,1.11-.64.2-.09,1.26.19,1.07.21,1.81-.02,1.55-.02,1.75-.64,1.13.28,1.45c.03.17-.06.77-.11.94l-.26.88c-.06.19-.17.85-.14,1.04l.23,1.42.14.83-.24.73.02,1.45v1.42l-.08,1.44-.08,1.59-.07,1.39-.07,1.45-.2,1.01.12,2.62-.03,1.4-.14.87-.18,1.4-.08,1.01-.07,1.45c-.05.1-.23.59-.21.73l.14,1.05.1,1.08.07.99c.08,1.06-.5.97-.4,2.75l.06,1.13.08,1.51c.12,2.1-1.01,1.71-.33,2.75.08.12.29.68.28.83l-.2,2.13-.11,1.17-.07,1.73v1.54l-.05,2.43-.15.81v2.53s-.16,1.41-.16,1.41l-.13.87-.05.91-.02.56-.09,2.44-.05,1.47-.04,1.06-.19.89-.14,2.73-.13,2.48c-.06,1.19.62,1.16.58,1.94l-.12,2.47-.2.92c-.03.14-.72.49-.83.36l-.84-1.04c-.4-.5.34-1.17.09-1.63l-.76-1.41c-.43-.79-.27-1.76-.13-1.91h.05Z" fill="#fff"/>
  <g>
    <path d="M46.06,91.72c-.02-.15.08-.61.12-.75l.25-.84c.21-.69-.65-1.11-.43-1.78l.39-1.15c.09-.26.06-1.12.02-1.47l-.13-1.06-.28-2.19-.28-2.11.21-.95.03-.96c0-.23-.13-.86-.21-1.08-.6-1.64-.36,1.29-.54,1.94l-.27,1.02c-.08.28-.2,1.1-.14,1.39l.23,1.04c.03.13.1.56.1.7v1.04l-.41.31c.54.49.59,1.88.41,2.38l-.34.93.07,1.24.38.05-.03,1.46-.02.91-.13.4.12.66-.06.71-.05.98.21,2.23.02.99v1.12l.05,1.05.21,1.01.15.9.12,2.87.11,1.22-.05.57-.1,1.11-.13,1.47-.08.88v1.15l.03.74.04.69.13.9.06,1.37c.02.5,1.07,1.08.3,1.34l-.13,1.28c-.03.27.09,1.21.16,1.47l.32,1.11c.04.15-.23.67-.26.82l-.31,1.23-.16.65c-.03.14.38.37.51.47.55.44-.52.61-.33,1.21l.22.69.28.85.26.82c.08.26.22.98.16,1.24l-.21.92-.22,1.31c-.02.13.5.61.55.65l-.29.78c-.05.13.04.56.08.71l.33,1.39.15.66c.04.15-.14.43-.28.7l.12.61.21,1.05.18.89c.03.14-.06.41-.17.76l.35,1.28c.06.23.32.88.32,1.09l-.06,2-.16.56.17,1.07.24,1.52c.05.3.15.96.12.78-.36.58-.32,2.09-.25,2.41l.3,1.43.24,1.15.21,1.04.12.64c-.1.26-.28.71-.26.83l.23,1.2.32,1.63.13.78.17,1.36c-.12.04-.02,0,.55-.2,0-.09.02.36.04.69l.09,1.85.19,1.42.2,1.08.18.81.55,1.46.46-1.42s.49.75.45.98l-.22,1.22-.7-.53-.3,1.48.11.74-.17.75-.15,1.07-.63,1.15c-.09.16-.13.88-.05,1.04l.32.66c-.23.09-.64.25-.5.2l.06.99c-.87-.36-.75-.32-.04-.02l-.21,1.11c-.05.25-.58.79-.56,1.03l.07.91c0,.15-.03.58-.06.72l-.22.85-.29,1.15-.23.83-.2,1.41-.32,1.03c-.06.21-.26.93-.26,1.15l.02,1.43-.25.94-.2.9-.22,1-.49.46c-.12.11-.58.43-.74.47l-1.54.48-.92.28-.83.23-1.05.27-1,.23c-.36.08-.76.18-.67.16l-.09-1.48c0-.13-.22-.56-.33-.77l-.37-.71c-.07-.14-.04-.63.03-.77l.35-.75c.07-.14.06-.64.04-.8l-.15-1.15-.15-1.14-.05-.66.04-1.14-.1-1.3c.04-.22.12-.64.09-.76l-.2-.89-.08-1.18c0-.2.45-.71.61-.82-.02-.04-.21-.37-.21-.53l.04-1.53c0-.14.14-.62.19-.76l.31-.93c.07-.23.11-.86.1-1.1l-.07-1.2-.05-.95.27-.44c.07-.08.38-.59.39-.73l.11-1.02.24-1.04c.06-.25.2-.91.14-1.11l-.25-.86c-.04-.14.33-.58.39-.72l.43-1.09.38-2.15c.04-.21.06-.96,0-1.15l-.22-.85c-.07-.28.78-.1.76-.95l-.02-.82-.02-.73-.07-1.42-.09-1.02-.1-1.17.02-1.73.04-1.08-.28-.82c-.28-.82.51-1.06.41-1.78l-.25-1.67-.18-1.22.1-2.08-.04-1.1-.08-1.16-.08-1.07-.08-1.14-.06-.82.03-.7.09-1.05.12-1.47-.38-1.01.1-2.18.06-1.37c0-.15-.17-.66-.22-.81l-.41-1.1c-.08-.21-.18-.86-.19-1.11l-.1-1.53.46-1.16c0,.46.03-.33.02-.47l-.09-1.22-.08-1.09-.08-1.15-.17-1.01-.21-.87-.15-1.04c-.12-.84.28-1.14.04-1.84l-.28-.82c-.06-.17-.14-.7-.16-.9l-.15-1.84-.1-1.22-.25-3.1-.17-.9-.13-.95-.21-1.53-.03-1.66c0-.27.12-.76.02-.92l-.47-.72c-.07-.11-.28-.62-.28-.75l-.05-1.03-.02-1.04v-1.12c0-.24-.18-.94-.25-1.17l-.4-1.4-.19-2.83-.13-1.24-.18-1.74-.24-3.05-.25-1.18c-.03-.15-.26-.7-.25-.86l.11-1.79-.26-.89-.24-1.32-.2-1.11c-.03-.2.83-.85.37-1.49l-.65-.91,1.48-.31c.13-.03.39-.43.5-.54l1.48-1.5.49-.5.47-.69.48-.54,1.4-1.26.57-.52,1.21-1.32.73-.73,1.62-1.4,2.83-2.41.9-.38,2-1.86,1.16-.74,2.52-1.88,1.54-1.31c.88-.75.38-1.38,1.18-1.7l.91-.37c.12-.05.49-.25.57-.34l.5-.59.52-.6.87-.96,1.06-1.17,2.16-2.36.93-.37.44-.55.46-.7.71-.71.68-.73.5-.65.64-.81.5-.64c.4-.16.68-.25.78-.36l1.69-1.81.54-.56,1.55-1.43.73-.65.86-.66.84-.95.69-.79,1.36-1.56.51-.58,1.1-.79,1.1-1.03,1.73-1.78,2.07-1.74,1.41-1.05,1.78-1.16.66-.43c.17-.11.82-.39,1.03-.43l1.04-.2.74-.16.85-.27,1.42-.45c.64-.2,2.48.18,2.82.69l.62.93.4.61c.1.15.18.85.16,1.03l-.15,1.11c-.04.26-.07.93-.04,1.18l.14.99.25.89.17,2.76.34,2.13.18.85c.03.16-.03.62-.06.78l-.2,1.03c-.04.19-.33.72-.44.87l-.29,1.9-.39,1.44-.25.67c-.05.14.52.17.57.02l.31-.83.42-.89.23-1.13.26-1.08.19-.75.25-.99c.07-.27.1-1.03.09-1.32l-.04-1.25-.34-.91.11-1.02.1-.88c-.18-.33-.39-.7-.14-.25,1.13-.73-.26-.98-.28-2.01l-.02-1.1-.02-1.05-.02-1.24-.2-1.4-.36-.77c-.11-.23-.55-.92-.78-1.04l-1.42-.72c-.15-.08-.88-.16-1.06-.16l-1.23.05-1.1.04c-.17,0,.26-.65.37-.78l.98-1.09.48-.7.75-1.06c.13-.18.69-.5.96-.64l.58-.72.82-1.02.57-.71.53-.57.83-.77.65-.48c.1-.07.54-.36.61-.45l1.13-1.36,1-1.27,1.42-1.8c.21-.27.81-.72,1.15-1.05l1.26-1.22.55-.66.79-.97.63-.57,1.34-1.15c.11-.09.64-.08.62.03l-.12,1.18-.11,1.07-.1.93-.17,3.49v1.3c0,.16-.44.73-.38.88l.43,1.12c.07.18-.08.94-.1.94l.15,1.17.12.89.25,1.94c.02.16.71.09.66-.06l-.28-.74c.38-.47.27-.68.12-1.15l-.26-.87c-.05-.18-.1-.88-.07-1.06l.16-1.1.17-1.19.04-1.74v-1.04c-.02-.14-.27-.63-.22-.76l.37-1.07.29-.83c.03-.09.19-.41.17-.5l-.21-.89.11-.98.14-.82.35-.86.38-.75c.09-.17.09-.66.1-.87l.02-1.15c.01-.59.53-1.19,1.13-1.21l1.07-.03,1.19-.03c.27,0,1.01.09,1.28.19l.83.31,1.42.46,1.57.51c.21.07.77.18.91.32l.7.68.61.51,1.18.99.79.65.62.47.48.32.54.38,1.27,1.32,1.28,1.41,2.23,2.46.46.62.46.58,1.13,1.44.5.62.49.6.42.72,1.59,1.57.54.7.76.65c.94.8.94,1.58,2.03,2.25l.72.44.52.31c.06.04-.08.53-.04.57l.9.96.58.62c.11.11-.42.25-.6.27l-1.36.13-.84-.07-1.18.08c-1.06.07-1.71.75-1.78,1.93l-.12,2.04-.55.91-.19.87-.09,1.32-.1,1.47-.14,2.18.15,1.76.27,1.14c.04.17,0,.75-.08.9l-.44.74s.38.38.37.53l-.03,1.11.16,1.06.2,1.13c.02.13.25.23.82.59l-.09-.8-.24-.82c-.04-.14-.14-.67-.13-.82l.06-.93.09-1.26.07-1.05-.08-1.5-.12-.92c-.02-.18-.18-.66-.12-.82l.29-.82.37-1.06c.06-.17-.05-.8-.08-.97l-.13-.73c0-.08,0-.45.03-.54l.21-1.03.3-.79c.08-.2.28-.68.28-.89v-1.35c0-1.01.49-1.62,1.02-1.65l2.11-.12c.38-.02,1.05,0,1.32.08l.83.27.86.2,1.01.23,1.02.34,1.05.44.7.41.68.43.59.51.81.61.87.66.61.41.94.58,1.11.96,2.19,2.28,1.09,1,.94.8-.07.32.78.8,1.22,1.42.53.61.67.78,1.2,1.28,1.4,1.32.43.41.66.5c.48.36.8,2.02,3.21,2.42.14.02.17.52.13.42-.58.21-.52.19-.51.19l.74.72.95.92,1.45,1.3.95.68c.17.12.55.52.64.69l.39.77.59.84.51.74c.08.12.35.42.48.45l.9.22c.82.2.2,1.11,1.34,1.88l.69.47.63.43.92.63,1.07.73,1.08,1.01.76.81,1.04,1.08c.66.69,1.66-.42,1.47.84l1.64,1.12.71.42,1.2.69c.29.16.75.81,1.06,1.05l.63.48.8.63.97.76.73.52c.1.07.35.45.49.6l.69.72.8.65.88.59c.12.08.45.43.55.54l.5.58,1.55,1.79.79,1,1.47,1.5c.07.17.21.5.15.37l-.37.99c-.05.13-.12.69-.11.83l.02,1.02v.61l-.19,1.3-.14.86-.18.93-.26,1.28-.25,2.64.04,1.3-.11.64-.2,1.14-.19.89c-.04.17-.11.66-.12.84l-.05,1.13-.11,2.48-.04.91-.38.42-.09,1.3c0,.14.21.73.25.87.16.62-.12.83-.23,2.51l-.05.65-.1,1.07-.08.9v1.38l.04,1.31-.18.6-.42,3.45v1.06l.06,1.15.14,2.11-.13.89.03.8c0,.24.88.7.76.91l-.62,1.05c.21.26.66.82.35.44l-.16,1.08-.05,1.03.04,1.15-.09,1.06-.14,1.03-.16,1.85.15,1.87.05.96v1l-.04,1.87-.15,1.64-.1,1.08-.09.99-.1,1.51-.06,1.48-.09,1.07-.13,1.1-.11.87c-.04.37-.09,1.28-.04,1.64l.15,1.08-.36,1.21.22,2.1.12,1.02-.09,1.23-.04.7v1.08l.15,1.58c.03.26-.09,1.03-.14,1.29l-.2.93c-.03.12,0,.58.02.7l.12.99.07,1.08-.02,1.46-.02,1.42.11,1.79c.02.37.45.68.48,1.34l.15,3.4.06,1.36.44.46.13.75.19,1.09.14.81.14,1,.1,1.08.09.81.24,1.33.16.87.07.72.03,1.42.03,1.05.08,1.14.04.68v2.35s.13.99.13.99c.03.25.1.88.08,1.07l-.11,1.14c-.03.27-.05,1.19.07,1.44l.54,1.09c.03.06-.52.21-.77.28,0-.03.06.46.1.76l.15,1.09-.46-.15-1.05-.06-1.06-.06-1.04-.4-1.15-.34c-.2-.06-.88-.29-1.05-.4l-1.34-.83c-.39-.24-.7-1.07-.7-1.07l.03-.74c0-.18-.12-.76-.18-.95l-.25-.79-.28-1.3-.18-.84-.26-1.19-.23-1.06c-.04-.2-.13-.87-.21-1.04l-.42-.87c-.08-.17-.1-.67-.08-.87l.11-1.15-.48-.78.21-.86c.05-.21.04-.8,0-1.01l-.2-1-.23-1.18-.19-.98c-.02-.12.36-.51.3-.62l-.42-.73c-.04-.06.1-.49.09-.57l-.11-1.1c-.02-.2-.37-.24-.88-.38,0,0,.21-.18.53-.46.02.14-.08-.68-.12-1.02-.02-.13-.11-.08-.55.09.02.1-.09-.38-.16-.69l-.15-.67c-.02-.09,0-.26.02-.64.06.06-.33-.36-.45-.49-.07-.08.55-.49.53-.59l-.29-1.31-.14-1.36-.33-1.45-.26-1.13-.21-.9-.16-.58-.24-.87c-.05-.17-.12-.75-.09-.92l.09-.57-.02-.51-.03-.78-.11-1.06-.32-1.13c-.32-1.16.37-1.67.33-2.17l-.13-1.73-.06-.83-.41-.49.06-.78.11-1.31.03-3.51-.04-1.25.1-1.34-.04-1.12-.06-1.5.04-1.72.17-1.42.19-1.58.13-1.05-.46-.54.11-.87.2-1.59.1-1.42v-2.12l-.21-1.55-.24-1.42-.07-1.12-.02-1.19.05-1.3c.04-1.13.87-.5.66-1.31l-.24-.91c-.05-.19,0-.85,0-1.04l.15-1.17c.02-.15-.22-.43-.64-.91-.11.56,0-.07.05-.24l.38-1c.08-.21-.07-.95-.12-1.18l-.29-1.26-.05-.53-.06-1.12c0-.23.08-.77.11-1.05l.08-1.02-.2-.83-.29-.9-.12-2.22-.09-2.25-.05-1.06-.12-3.96-.08-.8-.32-1.43c-.07-.29.33-.97.11-2.17l-.21-1.15-.18-1.08c-.04-.25.06-.86.16-1.09.43-1.04.17-1.71-.36-1.75l-1.21-.08c-.27-.02-.55.78-.54,1.05l.08,1.11.03.46.04.38-.53-.18-.77-.31-.84-.52-.71-.43-.92-.56-1.31-.81-.64-.47-1-.81-.41-.77c-.12-.23-.76-.58-1-.72l-.75-.41c-.11-.06-.5-.38-.59-.48l-1.07-1.1c-.09-.09-.51-.43-.63-.48l-.74-.29c-.23-.09-.63-.42-.78-.72l-.41-.82-2.11-2.07-.63-.62-.44-.63-1.39-1.39c-.1-.1-.36-.56-.44-.69l-.41-.74c-.07-.12-.37-.54-.48-.63l-1.53-1.31-1.21-1.03-1.3-1.22-.75-.72-1.38-1.12-3.11-2.39-1-.79-2.24-2.14-.74-.68-.62-.55-.62-.43c-.3-.21-.88-.78-1.08-1.06l-.64-.89-.72-1-.78-.44-1.34-1.5-1.32-1.48-.4-1.18-.8-.73c-.75-.68-1.92.18-1.74.47l.51.86c.1.17-.13.89-.27.77l-1.23-1.11-.59-.85-1.03-1.16-.41-.65-.39-.74c-.06-.11-.39-.67-.48-.76l-2.5-2.38-1.67-1.68-1.07-1.05-1.58-1.38-.99-.84-1.2-1-1.3-1.17-1.46-1.5-.73-.75-.52-.5-1.21-1.08c-.31-.28-.83-.98-1.08-1.37l-.62-.94-1.03-1.04-.96-.89-.44-.68-1.15-1.39-.28-1.18-1.46-1.31c-.09-.08-.77.23-.91.3-.13.07-.38.58-.31.7l.59.96.77,1.04.49.6.84.98.86,1,.68.8c.07.09.12.6.04.68l-.78.72-1.12,1.03-.49.63-1.75,1.88-.61.5-.66.88c-.1.13-.74.3-.64.26l-.59.6-.56.56-.73.74c-.14.14-.81.36-1.06.45-.22.09-.41.55-.56.92l-.73.24c-.12.04-.38.48-.47.57l-.72.8-1.89,2.12-.53.59-.67.67-1.17,1.06c-.1.09-.36.5-.45.68l-.37.72c-.11.21-.17.93-.35,1.07l-.86.66c-.21.16-.7.67-.82.91l-.57,1.16c-.08.17-.68-.71-.58-.88l.54-.86c.07-.1-.29-.51-.4-.59l-.5-.4c-.1-.08-.51.09-.61.18l-.77.79-.82.9-.7.9-.4.48-.72.86-.82.95-1.78,1.88-.56.53-.83.67-.74.68-.57.61-1.39,1.38-.84.74-1.02.89-1.17.95-.57.46c-.14.12-.6.64-.78.68l-1.21.27c-.01.07-.13.67-.25.74l-.79.43-.87.9-.53.56-1.78,1.85-.55.57-.87.66c-.3.23-.96.92-1.19,1.25l-.79,1.13c-.08.12-.08.78-.2.86l-.65.47c-.34.24-1.03.81-1.2,1.19l-.48,1.07c-.06.13-.61.3-.71.4l-1.02,1.1-.59.61-2.7,2.66-.95.6-1.04.75-.59.4-.71.44-1.59,1-1.68,1.14-.68.49-1.23.96-.65.46-1.42.9c.05-.66.06-1.03.14-1.19l.53-1.21c.1-.23-.38-1.08-.64-1.09l-1.18-.04c-.15,0-.48.51-.5.66l-.09.85-.03,1.06-.03,1.09-.04,1.49-.12,1.07-.16,1.11-.12,1.08-.07,1.83-.04,1-.03.73-.03.83-.03,1.09-.34,1.11c-.05.15.08.57.09.52-.02.18-.06.62-.05.76l.1,1.19.07,1.48-.06.96c0,.16-.46.74-.44.91l.21,1.65c.02.16.37.7.28.84l-.43.67c-.07.11-.09.49-.02.61l.35.65c.07.13-.21.5-.21.65v3.66l-.02,1.04-.17,2.49-.12,1.89.04.97.18.61.19,2.79.07,1,.11.91v2.86l-.05,1.32v.92l.07,1.03v1.05l-.23.83.1,1.07.06.85v1.9l-.02,1.21v.91l-.02,1.22-.19.8v1.09l.21,2.21-.17.8-.11,3.46.27,1.25c.04.17.04.73,0,.9l-.12.82-.27,1.9s-.34-.69-.35-.85l-.21-2.45-.05-1.12-.05-2.17-.12-1.06-.1-.77-.2-1.49-.14-1.09.02-1.04.09-1.09-.12-.79-.16-1.07-.12-1.09-.07-1.56-.16-1.01-.1-.96v-.75l-.22-.84-.05-1.4-.04-1.11-.07-1.85-.03-.84c-.22-.16-.8-.69-.7-.91l.42-.93c.09-.21,0-.73-.05-1l-.17-1.08-.21-1.33-.24-1.87.33-1.12-.27-1.12-.22-.93-.22-.9-.18-.74.27-.69-.11-.99-.1-.93-.04-.42v-1.54l.23-.87-.16-1.02-.13-.8-.18-1.11-.13-.83c-.11-.67.2-.96.13-1.7l-.12-1.19-.09-1.34-.07-1.49-.06-1.06-.07-1.08-.09-2.09-.15-1.56-.25-1.21-.14-.87-.05-.02ZM110.98,21.39s.08.2.13.28l-.13-.28ZM111.33,22.02l.21-.25-.21.25ZM111.81,22.44l-.18.18.18.18.18-.18-.18-.18ZM112.18,23.16l-.18.18.18.18.18-.18-.18-.18ZM137.11,45.73q.24-.24,0,0t0,0ZM190.95,75.41l.24-1.19-.47.17-.07.81.09,1.08c0,.16.13-.49.2-.87h.01ZM185.32,153.8c-.14.15-.3,1.11.13,1.91l.76,1.41c.25.46-.5,1.13-.09,1.63l.84,1.04c.11.13.8-.22.83-.36l.2-.92.12-2.47c.04-.78-.64-.74-.58-1.94l.13-2.48.14-2.73.19-.89.04-1.06.05-1.47.09-2.44.02-.56.05-.91.13-.87.15-1.41v-2.53s.16-.81.16-.81l.03-2.43v-1.54l.08-1.73.11-1.17.2-2.13c0-.15-.2-.72-.28-.83-.68-1.04.45-.66.33-2.75l-.08-1.51-.06-1.13c-.1-1.79.48-1.7.4-2.75l-.07-.99-.1-1.08-.14-1.05c-.02-.14.16-.63.21-.73l.07-1.45.08-1.01.18-1.4.14-.87.03-1.4-.12-2.62.2-1.01.07-1.45.07-1.39.08-1.59.08-1.44v-2.87l.24-.73-.14-.83-.23-1.42c-.03-.18.08-.85.14-1.04l.26-.88c.05-.17.15-.77.11-.94l-.28-1.45.64-1.13.02-1.75.02-1.55-.21-1.81-.19-1.07.09-1.26.64-.2-.18-1.11-.24-1.03c-.36-1.54-.38.96-.77,2.31l-.27.93c-.08.26-.18,1-.11,1.35l.26,1.2-.27.69.07,1.07c-.81-.18-.8-.18-.09-.02.02.46.06.99.02,1.17l-.31,1.35c-.04.15-.22.7-.19.86l.14.83c.03.17.08.83.06,1.01l-.29,2.17-.13.96-.13.83.04,1.52.06.98c.83-.21.75-.19.13-.03l-.38,1.56c-.03.13-.14.66-.13.78l.15,1.83.11,1.03-.12,2.03-.09,1.47-.14,1.05-.17.79-.25,1.2-.24,1.23-.16,2.3-.03.54-.03,1.02-.05,1.52c0,.16.28.61.44.88-.37.44-.69.77-.64,1.59l.1,1.43.1.88c0,.12-.07.55-.13.66l-.38.71-.31.85c-.39,1.06.81.78.59,1.53l-.79-.06.25,1.66.13.75.2,1.1c.04.2-.04.89-.11,1.08l-.42,1.14c-.11.29-.22.99-.2,1.28l.05.74.06,1.44.05,1.25-.16,1.08c-.03.19-.07.9-.05,1.09l.16,1.81-.26.72.12,1.07c.04.35.14.82.12,1.03l-.29,2.2-.12.91-.07.95-.06,1.11c0,.14.19.7.26.86.06.13-.54.28-.55.43l-.15,1.7.07,2.04.16,1.51.1.95c.1-.11-.34.36-.46.48h-.06Z" fill="#fff"/>
    <path d="M225.48,104.46l-.42,1.18c-.05.13-.56.38-.71.39l-1.31.06-1.15.05-2.14.09-1.12.22-1.1.21c-.2.04-.83-.1-1.04-.15l-1.15-.29-.88-.17-1.68-.15-2.38-.21-1.24-.27-.98-.45-1.67-.86-.97-.51-.95-.52-.93-.51-.88-.24-.97-.83-.99-.85-1.05-.43s-.92-.85-.81-1.32l.21-.92c.08-.35.26-1.21.22-1.62l-.13-1.56c-.04-.51.11-1.62.19-2.18l.15-1,.19-2.54.08-.82.36-2.03.13-1.47-.05-1.16.33-1.25.13-1.97.07-1.18.07-1.1c0-.17.73,0,.85.13l.9,1.02.89.87,1.63,1.23.71.45.87.57.6.49.7.42c.57.34.19.63.92,1.18l.65.49.63.34.86.38,1.08.69.92.5.88.62c.11.08.52.44.64.48l1.38.47c.63.21,1.54.73,2,1.13l.61.52.89.67.62.45,1.29.9.88.6.84.61,1.95,1.56c.1.08.66.28.81.32l.8.21c-.33.47-.49.68-.24.34.57.34.84.47.88.59l.27.84c.05.14.43.62.36.75l-.65,1.28-.41,1.05-.37,1.09-.38,1.14-.27.77-.43,1.22h0Z" fill="#fff"/>
    <path d="M16.62,106.36l-1.42-.1-3.32-.19-.87-.05c-.22-.01-.76-.44-.83-.67l-.39-1.38-.34-1.21-.36-1.08-.36-.71-.4-.72-.33-.73-.38-1.13c-.06-.17-.26-.84-.13-.96l1.5-1.35,1.52-1.13,2.12-1.57.63-.41.69-.42.63-.46.77-.65.86-.58.96-.54.7-.38.73-.38.93-.48.72-.37.72-.38.72-.38.73-.38.97-.51.74-.39c.37-.19,1.09-.77,1.37-1.08l.54-.6.8-.32,1.2-.95.61-.48,1.05-.83,1.56-1.33,1.66-1.51.89-.53c.14-.09.36.65.37.82l.1.9.08.93.04,1.11.04,1.17.2,1.5.24,1.71.09.66.09.92.09.98c.09.94-.2.84-.05,1.57l.19.94.23,1.13.25,1.27c.05.28.09.93.04,1.2l-.23,1.15c-.02.12.13.7.19.81l.48.83c.16.27-.1,1.03-.38,1.22l-.89.62-.9.62-1.07.64-1,.54-.68.37-.71.39-.93.51-.72.39c-.16.09-.68.68-.87.71l-2.04.35-.96.24-.85.21-1.11.27-1.51.34-1.09.39-2.33-.07-1.62-.04.03.02Z" fill="#fff"/>
    <path d="M34.22,74.97c-.49.31-.11.71-1.04,1.58l-1.1,1.03-.52.48-.9.76c-.01-.23-.05-.99-.03-.58l.54-.59-.38-.98c-.05-.12-.4-.64-.28-.67.23-.06.96-.18,1.13-.34l1.25-1.24.9-.96.51-.65.66-.72,1.16-1.03.81-.73,1.02-1.09.56-.6,1.71-1.74.84-.52,1.84-1.63,1.02-.77.97-.6,2.27-1.99.88-.38,1.75-1.41,1.76-1.44c.11-.09.44-.58.51-.7l.85-1.25c.07-.1.8-.16.89-.24l.62-.49.69-.76.54-.59.69-.74,1-1.1.91-1.09c.25-.3.94-.94,1.28-1.15l.91-.56c.14-.09.33-.59.45-.71l.88-.93c.09-.09.5-.33.53-.45l.24-.94c.04-.14.7-.2.78-.32l.43-.64.47-.6.74-.4,1.05-1.07.73-.74.73-.74,1.3-1.23.76-.66.7-.47,1.3-1.5,1.91-2.19.53-.52.93-.67,1.4-1.36,1.4-1.49.67-.51,1.36-1.14.78-.65.66-.44.65-.46.85-.6.66-.43c.12-.08.59-.33.73-.36l1.2-.29,1.25-.28c.11-.02.31-.29.49-.51l.71.19c.15.04.73.24.58.26-.18.02-.86.17-1.03.26l-.91.51-.94.53c-.23.13-.84.53-1.05.71l-1.34,1.2-.62.87-1.32,1.21-1.55,1.42-1.7,1.79-.78.55-.54.46-.53.46-1.01.91-1.32,1.2-.74.45-1.51,1.64-.51.57-.56.62-.49.49-.88.69c-.32.25-.96.95-1.15,1.3l-.37.67-.43.82c-.06.11-.56-.09-.66-.02l-.82.67-.56.57-1.35,1.42-.46.79c-.09.16-.49.62-.66.68l-.79.32-1.06.76-.84.6c-.37.27-.13.95-1.04,1.47l-.97.54-.47.69-.55.57-.45.56-.84,1.05-.49.52-.65.45-.7.35-.84.42-1.13.61c-.31.17-.68.75-1.03,1.29.07-.02-.81.18-.95.31l-1.69,1.5-.61.55-.57.55-.94.53-.78.59-.86.75-1,1.01-.56.68-.66.34-.88.96-.47.6-.47.78-1.93,1.87-.7.53c-.16.12-.55.52-.67.68l-.85,1.03c-.17.21-.7.7-.93.85l-.91.58Z" fill="#fff"/>
    <path d="M91.56,23.24l-1.11,1.37c-.19.24-.98.44-1.29.49l-.92.14c-.18.03-.85.09-.76-.07s.27-.53.39-.66l.7-.75.44-.58.8-1.11.75-1.05.73-.41,1.13-1.33.57-.67.46-.51,1.45-1.42.54-.53.73-.53,2.03-2.53,1.01-1.26.5-.56,1.03-.86,1.02-1.04.87-1.07.67-.72,2.16-1.84v2.54c0,.15-.19.75-.29.87l-1.72,2.15c-.11.14-.57.38-.8.5l-.46.46-1.3,1.29-.52.5-.63.57-.54.49-1.45,1.47-.54.61-.64.73-.55.7-.45.53-1.33,1.18c-.1.09-.32.59-.39.74l-.32.73-.34.79c-.21.49-.97-.14-1.63.68v-.03Z" fill="#fff"/>
    <path d="M132.03,46.6l.77,1.29c.4.67.2,1.44.65,2.18l.76,1.24c.07.12-.52.26-.63.16l-1.49-1.46-.42-.72-1.32-1.49c-.11-.13-.25-.65-.34-.79l-.56-.89-1.04-1.07-.59-.55-1.31-1.26-3.55-3.44-1.13-.93-1.08-.86-.78-.62-2.17-2.19-1.47-1.49c-.18-.18-.42-.73-.25-.9l.82-.84c.18-.18.92-.14,1.06.07l.49.69.46.65.83.93,1.72,1.62.52.57c.14.16.51.62.7.71l.76.39c.18.09.61.31.51.26-.06.44-.08.49-.02.53l.97.68.78.63.73.72.57.7.75.62.54.45.67.46.61.53,1.75,1.74c.09.09.33.71.38.83l.37.86h-.02Z" fill="#fff"/>
    <path d="M151.01,64.89l-.55-.54s.57-.02.75-.03c.06,0,.3.21.33.24l.54.4c.06.04.24.32.36.5.04.06.11.18.16.2l.64.3.75.36c.26.12.86.51,1.09.7l2.64,2.14,2.11,1.9,1.61,1.52c.11.1.8.31.86.44l.82,1.64c.06.11.41.4.53.5l.85.65.42.73.67.71.72.76.73.77.76.66,1.64,1.3.89.89.6.48,1.27.96.61.46.84.64.98.78,1.1.93c-.36.16-.92.39-1.09.29l-.94-.6-.9-.55-1.64-.92-.84-.62-.66-.47-.75-.66-.42-.74c-.14-.25-.78-.58-1.04-.72l-.75-.4-.76-.67-1.14-1.08-.8-.75c-.1-.1-.6.5-.57.48l-.58-1.07-.4-.74c-.08-.15-.43-.49-.68-.73l-1.98-1.9-.52-.71-1.42-1.39c-.1-.1-.26-.5-.38-.71l-.45-.79-1.73-1.72-1.88-1.54-1.04-1.03-.28-.29-.94-.81-.19-.16h.05Z" fill="#fff"/>
    <polygon points="8.39 106.29 6.3 106.38 5.43 106.32 4.96 105.09 4.68 104.35 4.33 102.86 3.93 101.77 3.09 100.34 2.7 98.94 2.24 98.04 2.71 97.35 3.82 96.26 4.56 95.88 5.38 95.35 5.2 96.96 5.19 98.19 5.63 99.68 5.94 100.79 6.45 101.78 6.78 102.55 7.31 103.3 7.38 104.07 7.77 104.82 8.39 106.29" fill="#fff"/>
    <path d="M46.06,91.72l-.4.05h-.44l.02-.9.03-1.46-.38-.05-.07-1.24.34-.93c.18-.5.13-1.88-.41-2.38l.4-.31v-1.04c0-.14-.07-.57-.1-.7l-.23-1.04c-.06-.29.06-1.1.14-1.39l.27-1.02c.17-.64-.07-3.58.54-1.94.08.22.21.85.21,1.08l-.03.96-.21.95.28,2.11.28,2.19.13,1.06c.04.34.07,1.2-.02,1.47l-.39,1.15c-.22.67.63,1.08.43,1.78l-.25.84c-.04.15-.15.6-.12.75h-.02Z" fill="#fff"/>
    <path d="M108.52,5.59l-.77.95-.89.87c-.12.12-.27-.84-.2-1l.37-.8.38-.83c.08-.18.09-.63.1-.83l.03-1.18c0-.28.47-1.15.75-1.18l1.15-.16h1.51c.18,0,.8.03.79.19l-.07,1.22c-.02.27-.81.56-1.02.73l-.88.72-1.25,1.3h0Z" fill="#fff"/>
    <path d="M92.41,56.07c-.11.12-1.02,0-.95-.11l.97-1.51,1.57-1.89.55-.66.66-.68c.14-.14,1.36-.29,1.29-.1-.11.29-.52,1.07-.72,1.29l-.71.76-.92.99-1.75,1.9h0Z" fill="#fff"/>
    <path d="M27.01,82.52l-.9.35-1.26.48c-.15.06-.14-.64-.02-.75l3.06-2.87c.16-.15,1.05-.39,1.09-.2.04.21.15,1.05.01,1.19l-1.21,1.25c-.11.11-.59.48-.78.55h.01Z" fill="#fff"/>
    <path d="M139.75,52.42l-.15-.87c-.03-.15.48.38.59.49l.1.09.56.5.5.44.75.88-.02.66-.79-.45-.46.25-.61-1.22-.33-.65c-.1-.06-.13-.07-.14-.11h0Z" fill="#fff"/>
    <path d="M136.56,54.45l-.68.27c-.13.05-.32-.31-.39-.46l-.66-1.55c.12-.02.72,0,.88.11.11.06.61.51.68.61l.54.79.07.15.25.23.12.1.29.24.09.09.28.27.08.09.24.3.08.12.17.3.15.19.19.19.27.27-.19.19-.27-.28-.18-.18-.18-.18-.3-.12-.12-.12-.22-.25-.13-.13-.16-.27-.17-.17-.17-.2-.18-.18-.18-.18-.19-.2v-.04Z" fill="#fff"/>
    <path d="M7.07,95.16l-1.2.54-.24-.74,1.7-.98.26-.47,1.16-.51-.33,1.25c-.58.06-.98.11-.72.08-.35.49-.54.78-.64.83h.01Z" fill="#fff"/>
    <path d="M23.44,84.73l-1.19.52c-.03-.27-.08-.6,0-.66l.87-.72c.12-.1.75-.25.93-.28.24-.05-.38,1.04-.61,1.14Z" fill="#fff"/>
    <path d="M16.39,88.85l-.69.26c0-.1,0-.51,0-.31l1.27-.81.76-.36.98-.31c.02-.08-.03.12-.1.42l-.66.45-.71.35-.85.31Z" fill="#fff"/>
    <rect x="20.57" y="85.03" width="1.21" height="1.2" transform="translate(-65.97 71.98) rotate(-67.21)" fill="#fff"/>
    <rect x="89.91" y="56.43" width="1.67" height=".73" transform="translate(-15.04 73.21) rotate(-40.86)" fill="#fff"/>
    <path d="M142.93,55.48c-.62-.51-.17-.86.29-.3l.29.35.16.2.16.19.39.45-.4.14-.37-.6s-.08-.08-.17-.15l-.36-.29h0Z" fill="#fff"/>
    <path d="M11.16,91.59l-.54.36-.2-.21.79-.54,1.08-.74c.1-.07.29.61.15.25l-1.28.87h0Z" fill="#fff"/>
    <rect x="14.86" y="89.11" width=".26" height=".26" transform="translate(-58.71 36.74) rotate(-45)" fill="#fff"/>
    <rect x="14.13" y="89.47" width=".26" height=".26" transform="translate(-59.18 36.33) rotate(-45)" fill="#fff"/>
    <rect x="9.76" y="92" width=".26" height=".26" transform="translate(-62.25 33.98) rotate(-45)" fill="#fff"/>
    <rect x="105.5" y="5.37" width=".26" height=".26" transform="translate(27.05 76.3) rotate(-45)" fill="#fff"/>
    <rect x="89.12" y="57.79" width=".26" height=".26" transform="translate(-14.82 80.08) rotate(-45)" fill="#fff"/>
    <rect x="144.46" y="56.71" width=".26" height=".26" transform="translate(2.16 118.88) rotate(-45)" fill="#fff"/>
    <path d="M190.95,75.41c-.08.38-.19,1.02-.2.87l-.09-1.08.07-.81.47-.17-.24,1.19h-.01Z" fill="#fff"/>
    <path d="M137.11,45.73q-.24.24,0,0t0,0Z" fill="#fff"/>
    <path d="M111.11,21.67c-.05-.08-.15-.32-.13-.28l.56.39-.21.25-.22-.35h0Z" fill="#fff"/>
    <rect x="111.69" y="22.49" width=".26" height=".26" transform="translate(16.76 85.7) rotate(-45)" fill="#fff"/>
    <rect x="112.05" y="23.22" width=".26" height=".26" transform="translate(16.35 86.16) rotate(-45)" fill="#fff"/>
  </g>
</svg>